<?xml version="1.0" encoding="utf-8"?>
<!-- Generator: Adobe Illustrator 22.1.0, SVG Export Plug-In . SVG Version: 6.00 Build 0)  -->
<svg version="1.1" id="Layer_1" xmlns="http://www.w3.org/2000/svg" xmlns:xlink="http://www.w3.org/1999/xlink" x="0px" y="0px"
	 viewBox="0 0 320 240" style="enable-background:new 0 0 320 240;" xml:space="preserve">
<style type="text/css">
	.st0{fill:none;stroke:#707070;stroke-width:4.9955;stroke-linecap:round;stroke-linejoin:round;stroke-dasharray:9.991,11.9892;}
	.st1{fill:none;stroke:#707070;stroke-width:10.9901;stroke-linecap:round;stroke-linejoin:round;stroke-dasharray:19.982,29.973;}
	.st2{fill:none;stroke:#707070;stroke-width:4.8156;stroke-linecap:round;stroke-linejoin:round;stroke-dasharray:9.631,11.5573;}
</style>
<g id="Ellipse_418" transform="translate(6507.506 8349)">
	<path class="st0" d="M-6438.9-8191.4c-16.6-11-27.6-30-27.6-51.4c0-34,27.6-61.6,61.6-61.6s61.6,27.6,61.6,61.6"/>
	<path class="st0" d="M-6438.9-8191.4"/>
	<path class="st0" d="M-6343.3-8238.2"/>
</g>
<g id="Group_233">
	<g id="Rectangle_818" transform="translate(815 292) rotate(90)">
		<path class="st1" d="M-279.9,807.3c-2.5,0-4.5-2.1-4.5-4.5V507.1c0-2.4,2-4.5,4.5-4.5h215.8c2.5,0,4.5,2.1,4.5,4.5v295.7
			c0,2.5-2.1,4.5-4.5,4.5H-279.9"/>
	</g>
</g>
<path id="Union_15" class="st2" d="M77.9,204L77.9,204c-13.4-0.9-23.5-12.4-22.7-25.8c0.7-12.2,10.5-21.9,22.7-22.7l0,0h49.6
	c-13.1-2.8-21.5-15.6-18.7-28.7c2.3-10.7,11.3-18.5,22.2-19.3l0,0h103.1v0.2c13.3,1.6,22.7,13.8,21,27.1c-1.3,11-10,19.7-21,21v0.2
	H183c13.1,2.8,21.5,15.6,18.7,28.7c-2.2,10.1-10.4,17.8-20.7,19.2v0.2L77.9,204L77.9,204z"/>
</svg>
