<?xml version="1.0" encoding="utf-8"?>
<!-- Generator: Adobe Illustrator 22.1.0, SVG Export Plug-In . SVG Version: 6.00 Build 0)  -->
<svg version="1.1" id="Layer_1" xmlns="http://www.w3.org/2000/svg" xmlns:xlink="http://www.w3.org/1999/xlink" x="0px" y="0px"
	 viewBox="0 0 320 240" style="enable-background:new 0 0 320 240;" xml:space="preserve">
<style type="text/css">
	.st0{fill:none;stroke:#707070;stroke-width:10.67;stroke-linecap:round;stroke-linejoin:round;stroke-dasharray:19.4,29.1;}
	.st1{fill:#707070;}
</style>
<path class="st0" d="M309.9,13.3v213.4c0,2.4-2,4.4-4.4,4.4h-291c-2.4,0-4.4-2-4.4-4.4V13.3c0-2.4,2-4.4,4.4-4.4h291
	C307.9,8.9,309.9,10.9,309.9,13.3z"/>
<g id="hill" transform="translate(152 569)">
	<g id="Path_800" transform="translate(4410.506 7327)">
		<path class="st1" d="M-4543.4-7847.2c0.1,0,0.2,0,0.3,0c0.5,0.1,1,0.1,1.5,0.2c2.7,0.3,5.4,0.6,8.1,0.9c1.3,0.2,2.3,1.4,2.1,2.7
			c-0.1,1.2-1.2,2.1-2.4,2.1c-0.1,0-0.2,0-0.3,0c-3.2-0.4-6.4-0.7-9.6-1.1c-1.3-0.1-2.3-1.3-2.2-2.7
			C-4545.6-7846.3-4544.6-7847.2-4543.4-7847.2z M-4522.2-7844.7c0.1,0,0.2,0,0.3,0c0.2,0,0.4,0.1,0.7,0.1c0,0,0.1,0,0.1,0
			c0.1,0,0.1,0,0.2,0c0.1,0,0.1,0,0.2,0c0,0,0.1,0,0.1,0c0.1,0,0.2,0,0.3,0l0,0c0.1,0,0.2,0,0.3,0l0,0c0.6,0.1,1.2,0.2,1.8,0.2l0,0
			c0.1,0,0.2,0,0.3,0c0,0,0,0,0,0c0.1,0,0.2,0,0.2,0c0,0,0.1,0,0.1,0c0.1,0,0.1,0,0.2,0c0.1,0,0.1,0,0.1,0c0.1,0,0.1,0,0.2,0
			c0.1,0,0.1,0,0.2,0c0,0,0.1,0,0.1,0c0.1,0,0.2,0,0.3,0c0,0,0,0,0,0c1.4,0.2,2.9,0.4,4.3,0.6c1.3,0.2,2.2,1.4,2,2.7
			c-0.2,1.2-1.2,2.1-2.4,2.1c-0.1,0-0.2,0-0.4,0c-3.2-0.5-6.4-0.9-9.5-1.3c-1.3-0.2-2.3-1.4-2.1-2.7
			C-4524.5-7843.8-4523.4-7844.7-4522.2-7844.7z M-4501.2-7841.6c0.1,0,0.2,0,0.4,0c2.4,0.4,4.8,0.8,7.1,1.2c0,0,0,0,0,0
			c0.1,0,0.1,0,0.2,0c0,0,0.1,0,0.1,0l0,0c0.7,0.1,1.4,0.2,2.1,0.4c1.3,0.2,2.2,1.5,2,2.8c-0.2,1.2-1.2,2-2.4,2c-0.1,0-0.3,0-0.4,0
			c-3.1-0.5-6.3-1.1-9.5-1.6c-1.3-0.2-2.2-1.5-2-2.8C-4503.4-7840.7-4502.4-7841.6-4501.2-7841.6z M-4480.2-7837.9
			c0.1,0,0.3,0,0.5,0c1,0.2,2,0.4,2.9,0.6c0,0,0,0,0.1,0c0.1,0,0.2,0,0.2,0c0,0,0,0,0.1,0c0.1,0,0.1,0,0.2,0c0.1,0,0,0,0.1,0
			c0.1,0,0.1,0,0.2,0c0,0,0,0,0.1,0c0.1,0,0.2,0,0.2,0c0,0,0,0,0.1,0c0.1,0,0.2,0,0.2,0c0,0,0,0,0.1,0c0.1,0,0.2,0,0.2,0
			c0,0,0,0,0.1,0c0.1,0,0.2,0,0.3,0.1l0,0c0.1,0,0.2,0,0.3,0.1l0,0c1.4,0.3,2.8,0.5,4.2,0.8c1.3,0.3,2.2,1.5,1.9,2.9
			c-0.2,1.2-1.2,1.9-2.4,1.9c-0.2,0-0.3,0-0.5,0c-3.1-0.6-6.3-1.2-9.5-1.8c-1.3-0.2-2.2-1.5-1.9-2.8
			C-4482.4-7837.1-4481.4-7837.9-4480.2-7837.9z M-4459.4-7833.7c0.2,0,0.3,0,0.5,0.1c1.1,0.2,2.3,0.5,3.4,0.7c0,0,0,0,0,0
			c0.1,0,0.2,0,0.2,0.1c0,0,0.1,0,0.1,0c0.1,0,0.1,0,0.2,0c0,0,0.1,0,0.1,0c0.1,0,0.1,0,0.1,0c0.1,0,0.1,0,0.2,0c0,0,0.1,0,0.1,0
			c0.1,0,0.2,0,0.2,0.1c0,0,0,0,0,0c1.6,0.3,3.1,0.7,4.7,1.1c1.3,0.3,2.1,1.6,1.8,2.9c-0.3,1.1-1.3,1.9-2.4,1.9
			c-0.2,0-0.4,0-0.5-0.1c-3.1-0.7-6.3-1.4-9.4-2.1c-1.3-0.3-2.1-1.6-1.9-2.9C-4461.5-7832.9-4460.5-7833.7-4459.4-7833.7z
			 M-4438.7-7828.9c0.2,0,0.4,0,0.6,0.1c2.2,0.5,4.5,1.1,6.7,1.7c0,0,0,0,0,0c0.1,0,0.1,0,0.2,0c0,0,0.1,0,0.1,0c0,0,0.1,0,0.1,0
			c0.8,0.2,1.5,0.4,2.3,0.6c1.3,0.3,2.1,1.7,1.7,3c-0.3,1.1-1.3,1.8-2.3,1.8c-0.2,0-0.4,0-0.6-0.1c-3.1-0.8-6.2-1.6-9.4-2.3
			c-1.3-0.3-2.1-1.6-1.8-2.9C-4440.7-7828.2-4439.7-7828.9-4438.7-7828.9z M-4418.1-7823.6c0.2,0,0.4,0,0.6,0.1
			c0.1,0,0.2,0.1,0.3,0.1c0,0,0,0,0,0c0.1,0,0.2,0,0.2,0.1c0,0,0.1,0,0.1,0c0.1,0,0.1,0,0.2,0.1c0,0,0.1,0,0.1,0c0,0,0.1,0,0.1,0
			c0,0,0.1,0,0.2,0.1c0,0,0.1,0,0.1,0c0.1,0,0.1,0,0.2,0.1c0,0,0,0,0.1,0c0.1,0,0.1,0,0.2,0.1c0,0,0,0,0.1,0c0.1,0,0.2,0,0.3,0.1
			c0,0,0,0,0,0c0.1,0,0.2,0,0.3,0.1c0,0,0,0,0,0c0.1,0,0.2,0,0.3,0.1c0,0,0,0,0,0c0.1,0,0.1,0,0.2,0.1c0,0,0,0,0.1,0
			c0.1,0,0.1,0,0.2,0.1c0,0,0,0,0.1,0c0.1,0,0.1,0,0.2,0.1c0,0,0.1,0,0.1,0c0.1,0,0.1,0,0.2,0.1c0,0,0.1,0,0.1,0c0,0,0.1,0,0.2,0.1
			c0,0,0.1,0,0.1,0c0,0,0.1,0,0.2,0c0,0,0.1,0,0.1,0c0,0,0.1,0,0.2,0c0,0,0.1,0,0.1,0c0,0,0.1,0,0.2,0c0,0,0.1,0,0.1,0
			c0,0,0.1,0,0.1,0c0.1,0,0.1,0,0.2,0c0,0,0.1,0,0.1,0c0.1,0,0.1,0,0.2,0c0,0,0.1,0,0.1,0c0,0,0.1,0,0.1,0c0,0,0.1,0,0.2,0
			c0,0,0.1,0,0.1,0c0.1,0,0.1,0,0.2,0.1c0,0,0.1,0,0.1,0c0.1,0,0.1,0,0.2,0.1c0,0,0,0,0,0c0.8,0.2,1.6,0.5,2.4,0.7
			c1.3,0.4,2,1.7,1.6,3c-0.3,1.1-1.3,1.8-2.3,1.8c-0.2,0-0.4,0-0.7-0.1c-3.1-0.9-6.2-1.8-9.3-2.6c-1.3-0.4-2.1-1.7-1.7-3
			C-4420.1-7822.9-4419.1-7823.6-4418.1-7823.6z M-4397.6-7817.7c0.2,0,0.5,0,0.7,0.1c2.2,0.7,4.4,1.4,6.7,2l0,0
			c0.1,0,0.2,0.1,0.3,0.1c0,0,0,0,0,0c0.1,0,0.2,0.1,0.2,0.1c0,0,0,0,0,0c0.1,0,0.2,0.1,0.2,0.1c0,0,0,0,0.1,0c0.1,0,0.2,0,0.2,0.1
			c0,0,0,0,0.1,0c0.1,0,0.1,0,0.2,0.1c0,0,0.1,0,0.1,0c0.1,0,0.1,0,0.2,0.1c0,0,0.1,0,0.1,0c0.1,0,0.1,0,0.2,0.1c0,0,0.1,0,0.1,0
			c0.1,0,0.1,0,0.2,0.1c0,0,0.1,0,0.1,0c0.1,0,0.1,0,0.2,0.1c0,0,0.1,0,0.1,0c1.3,0.4,2,1.8,1.6,3c-0.3,1-1.3,1.7-2.3,1.7
			c-0.2,0-0.5,0-0.7-0.1c-3.1-1-6.2-1.9-9.2-2.8c-1.3-0.4-2-1.7-1.6-3C-4399.6-7817.1-4398.7-7817.7-4397.6-7817.7z M-4377.3-7811.3
			c0.2,0,0.5,0,0.8,0.1c0.2,0.1,0.5,0.2,0.7,0.2l0,0c0.1,0,0.2,0.1,0.3,0.1c0,0,0,0,0.1,0c0.1,0,0.1,0,0.2,0.1c0,0,0.1,0,0.1,0
			c0,0,0.1,0,0.2,0.1c0,0,0.1,0,0.1,0c0,0,0.1,0,0.1,0c0.1,0,0.1,0,0.2,0.1c0,0,0.1,0,0.1,0c0.1,0,0.1,0,0.2,0.1c0,0,0.1,0,0.1,0
			c0.1,0,0.1,0,0.2,0.1c0,0,0,0,0.1,0c0.1,0,0.2,0.1,0.2,0.1c0,0,0,0,0.1,0c0.1,0,0.2,0.1,0.2,0.1c0,0,0,0,0,0
			c0.1,0,0.2,0.1,0.2,0.1c0,0,0,0,0.1,0c0.1,0,0.2,0.1,0.2,0.1c0,0,0,0,0.1,0c0.1,0,0.2,0.1,0.2,0.1c0,0,0,0,0.1,0
			c0.1,0,0.1,0,0.2,0.1c0,0,0,0,0.1,0c0.1,0,0.1,0,0.2,0.1c0,0,0.1,0,0.1,0c0.1,0,0.1,0,0.2,0.1c0,0,0.1,0,0.1,0
			c0.1,0,0.1,0,0.2,0.1c0,0,0.1,0,0.2,0.1c0,0,0.1,0,0.1,0c0,0,0.1,0,0.2,0.1c0,0,0.1,0,0.1,0c0.1,0,0.1,0.1,0.2,0.1c0,0,0,0,0,0
			c1.1,0.4,2.2,0.7,3.3,1.1c1.3,0.4,1.9,1.8,1.5,3.1c-0.3,1-1.3,1.6-2.3,1.6c-0.3,0-0.5,0-0.8-0.1c-3-1-6.1-2.1-9.1-3.1
			c-1.3-0.4-2-1.8-1.5-3.1C-4379.3-7810.7-4378.3-7811.3-4377.3-7811.3z M-4357.2-7804.3c0.3,0,0.5,0,0.8,0.1c0,0,0.1,0,0.2,0.1
			c0,0,0.1,0,0.1,0c0.1,0,0.1,0,0.2,0.1c0,0,0.1,0,0.1,0c0,0,0.1,0,0.1,0c0.1,0,0.1,0,0.2,0.1c0,0,0.1,0,0.1,0c0.1,0,0.1,0,0.2,0.1
			c0,0,0.1,0,0.1,0c0.1,0,0.1,0,0.2,0.1c0,0,0,0,0.1,0c0.1,0,0.2,0.1,0.2,0.1c0,0,0,0,0.1,0c0.1,0,0.2,0.1,0.2,0.1c0,0,0,0,0.1,0
			c0.1,0,0.2,0.1,0.2,0.1c0,0,0,0,0.1,0c0.1,0,0.1,0.1,0.2,0.1l0.1,0c0.1,0,0.2,0.1,0.2,0.1c0,0,0,0,0.1,0c0.1,0,0.1,0.1,0.2,0.1
			c0,0,0.1,0,0.1,0c0.1,0,0.1,0,0.2,0.1c0,0,0.1,0,0.1,0.1c0,0,0.1,0,0.1,0c0.1,0,0.1,0,0.2,0.1c0,0,0.1,0,0.1,0
			c0.1,0,0.1,0.1,0.2,0.1c0,0,0,0,0,0c1.6,0.6,3.3,1.2,4.9,1.8c1.2,0.5,1.9,1.9,1.4,3.1c-0.4,1-1.3,1.6-2.3,1.6
			c-0.3,0-0.6-0.1-0.9-0.2c-3-1.1-6-2.2-9-3.3c-1.3-0.5-1.9-1.8-1.5-3.1C-4359.2-7803.7-4358.2-7804.3-4357.2-7804.3z
			 M-4337.3-7796.8c0.3,0,0.6,0.1,0.9,0.2c3,1.2,6,2.4,9,3.6c1.2,0.5,1.8,1.9,1.3,3.2c-0.4,0.9-1.3,1.5-2.2,1.5
			c-0.3,0-0.6-0.1-0.9-0.2c-3-1.2-6-2.4-8.9-3.6c-1.2-0.5-1.9-1.9-1.4-3.1C-4339.2-7796.2-4338.3-7796.8-4337.3-7796.8z
			 M-4317.6-7788.8c0.3,0,0.6,0.1,0.9,0.2c1.3,0.5,2.5,1.1,3.8,1.6c0,0,0,0,0,0c0.1,0,0.2,0.1,0.2,0.1c0,0,0,0,0.1,0
			c0.1,0,0.1,0.1,0.2,0.1c0,0,0.1,0,0.1,0c0.1,0,0.1,0,0.2,0.1c0,0,0.1,0,0.1,0.1c0,0,0.1,0,0.1,0.1c0.1,0,0.1,0,0.2,0.1
			c0,0,0.1,0,0.1,0c0.1,0,0.1,0,0.2,0.1c0,0,0.1,0,0.1,0c0.1,0,0.1,0.1,0.2,0.1c0,0,0.1,0,0.1,0c0.1,0,0.1,0.1,0.2,0.1
			c0,0,0.1,0,0.1,0c0.1,0,0.1,0.1,0.2,0.1c0,0,0.1,0,0.1,0c0.1,0,0.1,0.1,0.2,0.1c0,0,0.1,0,0.1,0.1c0,0,0.1,0,0.1,0.1
			c0.1,0,0.1,0,0.2,0.1c0,0,0.1,0,0.1,0c0.1,0,0.1,0.1,0.2,0.1c0,0,0.1,0,0.1,0c0.1,0,0.1,0.1,0.2,0.1c0,0,0,0,0,0
			c0.5,0.2,1,0.4,1.5,0.6c1.2,0.5,1.8,2,1.2,3.2c-0.4,0.9-1.3,1.5-2.2,1.5c-0.3,0-0.7-0.1-1-0.2c-2.9-1.3-5.9-2.6-8.8-3.8
			c-1.2-0.5-1.8-1.9-1.3-3.2C-4319.5-7788.2-4318.6-7788.8-4317.6-7788.8z M-4298.2-7780.2c0.3,0,0.7,0.1,1,0.2
			c0.4,0.2,0.9,0.4,1.3,0.6c0,0,0,0,0.1,0c0.1,0,0.1,0.1,0.2,0.1c0,0,0.1,0,0.1,0.1c0,0,0.1,0,0.1,0.1c0.1,0,0.1,0.1,0.2,0.1
			c0,0,0,0,0.1,0c0.1,0,0.2,0.1,0.2,0.1c0,0,0,0,0,0c2.2,1,4.3,2,6.5,3c1.2,0.6,1.7,2,1.1,3.2c-0.4,0.9-1.3,1.4-2.2,1.4
			c-0.3,0-0.7-0.1-1-0.2c-2.9-1.4-5.8-2.7-8.7-4.1c-1.2-0.6-1.8-2-1.2-3.2C-4300-7779.7-4299.1-7780.2-4298.2-7780.2z
			 M-4278.9-7771.1c0.4,0,0.7,0.1,1,0.2c2.9,1.4,5.8,2.9,8.7,4.3c1.2,0.6,1.7,2.1,1.1,3.2c-0.4,0.8-1.3,1.3-2.2,1.3
			c-0.4,0-0.7-0.1-1.1-0.3c-2.9-1.4-5.8-2.9-8.6-4.3c-1.2-0.6-1.7-2-1.1-3.2C-4280.7-7770.6-4279.8-7771.1-4278.9-7771.1z"/>
	</g>
</g>
</svg>
