<svg xmlns="http://www.w3.org/2000/svg" xmlns:xlink="http://www.w3.org/1999/xlink" viewBox="0 0 320 240">
  <defs>
    <style>
      .cls-1 {
        fill: none;
        stroke: #707070;
        stroke-linecap: round;
        stroke-linejoin: round;
        stroke-width: 11px;
        stroke-dasharray: 20 30;
      }

      .cls-2 {
        fill: #6900ff;
      }

      .cls-3 {
        clip-path: url(#clip-path);
      }

      .cls-4 {
        fill: #ffc300;
      }

      .cls-5 {
        clip-path: url(#clip-path-2);
      }

      .cls-6 {
        fill: #00ffe6;
      }

      .cls-7 {
        fill: #fff;
      }

      .cls-8 {
        fill: #ff4100;
      }

      .cls-9 {
        fill: #ff00a5;
      }
    </style>
    <clipPath id="clip-path">
      <rect id="Rectangle_772" data-name="Rectangle 772" class="cls-1" width="240" height="320" transform="translate(5459 6543) rotate(90)"/>
    </clipPath>
    <clipPath id="clip-path-2">
      <rect id="Rectangle_769" data-name="Rectangle 769" class="cls-2" width="640" height="480" transform="translate(4987 7041)"/>
    </clipPath>
  </defs>
  <g id="Mask_Group_91" data-name="Mask Group 91" class="cls-3" transform="translate(-5139 -6543)">
    <g id="snowman" transform="translate(0 -1068)">
      <rect id="bgsnowman" class="cls-2" width="640" height="480" transform="translate(5139 7610)"/>
      <ellipse id="moon" class="cls-4" cx="53" cy="53" rx="53" ry="53" transform="translate(5564.506 7677)"/>
      <g id="hill" class="cls-5" transform="translate(152 569)">
        <ellipse id="Ellipse_388" data-name="Ellipse 388" class="cls-6" cx="823.688" cy="823.688" rx="823.688" ry="823.688" transform="translate(4410.506 7327)"/>
      </g>
      <g id="snowman-2" data-name="snowman">
        <ellipse id="Ellipse_389" data-name="Ellipse 389" class="cls-7" cx="77.333" cy="77.333" rx="77.333" ry="77.333" transform="translate(5220.221 7695.831)"/>
        <ellipse id="Ellipse_390" data-name="Ellipse 390" class="cls-2" cx="9.938" cy="9.938" rx="9.938" ry="9.938" transform="translate(5309.954 7744.234)"/>
        <ellipse id="Ellipse_391" data-name="Ellipse 391" class="cls-2" cx="9.938" cy="9.938" rx="9.938" ry="9.938" transform="translate(5265.104 7743.866)"/>
        <ellipse id="Ellipse_392" data-name="Ellipse 392" class="cls-7" cx="117.914" cy="117.914" rx="117.914" ry="117.914" transform="translate(5179.812 7800.183)"/>
        <path id="Path_772" data-name="Path 772" class="cls-8" d="M0,10.852,71.473,0,7.4,35.045Z" transform="translate(5297.72 7756.269) rotate(17)"/>
        <g id="tie">
          <path id="Path_773" data-name="Path 773" class="cls-4" d="M13.7,0,0,34.851H27.919Z" transform="translate(5299.373 7868.996) rotate(90)"/>
          <path id="Path_774" data-name="Path 774" class="cls-4" d="M13.7,0,0,34.851H27.919Z" transform="translate(5299.019 7896.278) rotate(-90)"/>
        </g>
      </g>
      <g id="hat">
        <rect id="Rectangle_770" data-name="Rectangle 770" class="cls-9" width="127.609" height="26.585" transform="translate(5234.246 7682.283)"/>
        <rect id="Rectangle_771" data-name="Rectangle 771" class="cls-9" width="75.502" height="41.473" transform="translate(5260.831 7644)"/>
      </g>
    </g>
  </g>
</svg>
