<?xml version="1.0" encoding="utf-8"?>
<!-- Generator: Adobe Illustrator 22.1.0, SVG Export Plug-In . SVG Version: 6.00 Build 0)  -->
<svg version="1.1" id="Layer_1" xmlns="http://www.w3.org/2000/svg" xmlns:xlink="http://www.w3.org/1999/xlink" x="0px" y="0px"
	 viewBox="0 0 320 240" style="enable-background:new 0 0 320 240;" xml:space="preserve">
<style type="text/css">
	.st0{fill:#707070;}
	.st1{fill:none;stroke:#707070;stroke-width:10.67;stroke-linecap:round;stroke-linejoin:round;stroke-dasharray:19.4,29.1;}
	.st2{fill:none;stroke:#707070;stroke-width:4.85;stroke-linecap:round;stroke-dasharray:9.7,11.64;}
</style>
<g id="Path_872" transform="translate(6198.226 7250.863)">
	<path class="st0" d="M-6170.6-7195h-9.7c-1.3,0-2.4,1.1-2.4,2.4s1.1,2.4,2.4,2.4h9.7c1.3,0,2.4-1.1,2.4-2.4
		S-6169.2-7195-6170.6-7195z"/>
	<path class="st0" d="M-5999.9-7195h-9.7c-1.3,0-2.4,1.1-2.4,2.4s1.1,2.4,2.4,2.4h9.7c1.3,0,2.4-1.1,2.4-2.4
		S-5998.5-7195-5999.9-7195z"/>
	<path class="st0" d="M-5957.2-7195h-9.7c-1.3,0-2.4,1.1-2.4,2.4s1.1,2.4,2.4,2.4h9.7c1.3,0,2.4-1.1,2.4-2.4
		S-5955.8-7195-5957.2-7195z"/>
	<path class="st0" d="M-6021.2-7195h-9.7c-1.3,0-2.4,1.1-2.4,2.4s1.1,2.4,2.4,2.4h9.7c1.3,0,2.4-1.1,2.4-2.4
		S-6019.9-7195-6021.2-7195z"/>
	<path class="st0" d="M-6042.5-7195h-9.7c-1.3,0-2.4,1.1-2.4,2.4s1.1,2.4,2.4,2.4h9.7c1.3,0,2.4-1.1,2.4-2.4
		S-6041.2-7195-6042.5-7195z"/>
	<path class="st0" d="M-5932.6-7208.2c-1.3,0-2.4,1.1-2.4,2.4v9.7c0,0.6,0.2,1.1,0.5,1.5c-0.4-0.3-0.9-0.4-1.4-0.4h-9.7
		c-1.3,0-2.4,1.1-2.4,2.4s1.1,2.4,2.4,2.4h9.7c1.3,0,2.4-1.1,2.4-2.4c0-0.6-0.2-1.1-0.5-1.5c0.4,0.3,0.9,0.4,1.4,0.4
		c1.3,0,2.4-1.1,2.4-2.4v-9.7C-5930.1-7207.1-5931.2-7208.2-5932.6-7208.2z"/>
	<path class="st0" d="M-5932.6-7229.5c-1.3,0-2.4,1.1-2.4,2.4v9.7c0,1.3,1.1,2.4,2.4,2.4s2.4-1.1,2.4-2.4v-9.7
		C-5930.1-7228.5-5931.2-7229.5-5932.6-7229.5z"/>
	<path class="st0" d="M-5978.5-7195h-9.7c-1.3,0-2.4,1.1-2.4,2.4s1.1,2.4,2.4,2.4h9.7c1.3,0,2.4-1.1,2.4-2.4
		S-5977.2-7195-5978.5-7195z"/>
	<path class="st0" d="M-6149.2-7195h-9.7c-1.3,0-2.4,1.1-2.4,2.4s1.1,2.4,2.4,2.4h9.7c1.3,0,2.4-1.1,2.4-2.4
		S-6147.9-7195-6149.2-7195z"/>
	<path class="st0" d="M-6127.9-7195h-9.7c-1.3,0-2.4,1.1-2.4,2.4s1.1,2.4,2.4,2.4h9.7c1.3,0,2.4-1.1,2.4-2.4
		S-6126.6-7195-6127.9-7195z"/>
	<path class="st0" d="M-6063.9-7195h-9.7c-1.3,0-2.4,1.1-2.4,2.4s1.1,2.4,2.4,2.4h9.7c1.3,0,2.4-1.1,2.4-2.4
		S-6062.5-7195-6063.9-7195z"/>
	<path class="st0" d="M-6085.2-7195h-9.7c-1.3,0-2.4,1.1-2.4,2.4s1.1,2.4,2.4,2.4h9.7c1.3,0,2.4-1.1,2.4-2.4
		S-6083.9-7195-6085.2-7195z"/>
	<path class="st0" d="M-6106.6-7195h-9.7c-1.3,0-2.4,1.1-2.4,2.4s1.1,2.4,2.4,2.4h9.7c1.3,0,2.4-1.1,2.4-2.4
		S-6105.2-7195-6106.6-7195z"/>
</g>
<path class="st1" d="M309.9,13.2v213.4c0,2.4-2,4.4-4.4,4.4h-291c-2.4,0-4.4-2-4.4-4.4V13.2c0-2.4,2-4.4,4.4-4.4h291
	C307.9,8.8,309.9,10.8,309.9,13.2z"/>
<path id="Path_895" class="st2" d="M267,58.7h42.3"/>
</svg>
