<?xml version="1.0" encoding="utf-8"?>
<!-- Generator: Adobe Illustrator 22.1.0, SVG Export Plug-In . SVG Version: 6.00 Build 0)  -->
<svg version="1.1" id="Layer_1" xmlns="http://www.w3.org/2000/svg" xmlns:xlink="http://www.w3.org/1999/xlink" x="0px" y="0px"
	 viewBox="0 0 320 240" style="enable-background:new 0 0 320 240;" xml:space="preserve">
<style type="text/css">
	.st0{fill:none;}
	.st1{fill:none;stroke:#707070;stroke-width:10.67;stroke-linecap:round;stroke-linejoin:round;stroke-dasharray:19.4,29.1;}
	.st2{fill:none;stroke:#707070;stroke-width:4.85;stroke-linecap:round;stroke-linejoin:round;stroke-dasharray:9.7,11.64;}
</style>
<g id="Rectangle_819" transform="translate(489 292) rotate(90)">
	<path class="st0" d="M-278.7,173.8h213.4c5.4,0,9.7,4.3,9.7,9.7v291c0,5.4-4.3,9.7-9.7,9.7h-213.4c-5.4,0-9.7-4.3-9.7-9.7v-291
		C-288.4,178.1-284.1,173.8-278.7,173.8z"/>
	<path class="st1" d="M-278.7,179.1h213.4c2.4,0,4.4,2,4.4,4.4v291c0,2.4-2,4.4-4.4,4.4h-213.4c-2.4,0-4.4-2-4.4-4.4v-291
		C-283.1,181.1-281.1,179.1-278.7,179.1z"/>
</g>
<g id="Mask_Group_113" transform="translate(-5801 -6781)">
	<g id="Group_235">
		<g id="Group_234">
			<g id="Ellipse_430" transform="translate(6044.506 7128)">
				<ellipse class="st0" cx="-111.9" cy="-235.5" rx="54.5" ry="54.5"/>
				<ellipse class="st2" cx="-111.9" cy="-235.5" rx="52.1" ry="52.1"/>
			</g>
		</g>
	</g>
</g>
<path class="st2" d="M312.3,215.1v-6.2H213l13.6,20.6"/>
</svg>
