<?xml version="1.0" encoding="utf-8"?>
<!-- Generator: Adobe Illustrator 22.1.0, SVG Export Plug-In . SVG Version: 6.00 Build 0)  -->
<svg version="1.1" id="Layer_1" xmlns="http://www.w3.org/2000/svg" xmlns:xlink="http://www.w3.org/1999/xlink" x="0px" y="0px"
	 viewBox="0 0 320 243" style="enable-background:new 0 0 320 243;" xml:space="preserve">
<style type="text/css">
	.st0{fill:none;}
	.st1{fill:none;stroke:#707070;stroke-width:10.67;stroke-linecap:round;stroke-linejoin:round;stroke-dasharray:19.4,29.1;}
	.st2{fill:none;stroke:#707070;stroke-width:4.85;stroke-linecap:round;stroke-linejoin:round;stroke-dasharray:9.7,11.64;}
</style>
<g>
	<g id="Group_232">
		<g id="Rectangle_817" transform="translate(815 540) rotate(90)">
			<path class="st0" d="M-525.2,499.8h213.4c5.4,0,9.7,4.3,9.7,9.7v291c0,5.4-4.3,9.7-9.7,9.7h-213.4c-5.4,0-9.7-4.3-9.7-9.7v-291
				C-534.9,504.1-530.6,499.8-525.2,499.8z"/>
			<path class="st1" d="M-525.2,505.1h213.4c2.4,0,4.4,2,4.4,4.4v291c0,2.4-2,4.4-4.4,4.4h-213.4c-2.4,0-4.4-2-4.4-4.4v-291
				C-529.6,507.1-527.6,505.1-525.2,505.1z"/>
		</g>
	</g>
	<g id="Mask_Group_42" transform="translate(313 -1096)">
		<path id="Union_41" class="st2" d="M-211.5,1106.4v39h77.9v-39"/>
	</g>
</g>
</svg>
