<svg xmlns="http://www.w3.org/2000/svg" xmlns:xlink="http://www.w3.org/1999/xlink" viewBox="0 0 320 240">
  <defs>
    <style>
      .cls-1 {
        fill: none;
        stroke: #707070;
        stroke-linecap: round;
        stroke-linejoin: round;
        stroke-width: 11px;
        stroke-dasharray: 20 30;
      }

      .cls-2 {
        fill: #c62626;
      }

      .cls-3 {
        clip-path: url(#clip-path);
      }

      .cls-4 {
        clip-path: url(#clip-path-2);
      }

      .cls-5 {
        fill: #6900ff;
      }

      .cls-6 {
        fill: #ff00a5;
      }

      .cls-7 {
        fill: #ffc300;
      }
    </style>
    <clipPath id="clip-path">
      <rect id="Rectangle_637" data-name="Rectangle 637" class="cls-1" width="240" height="320" transform="translate(7089 7211) rotate(90)"/>
    </clipPath>
    <clipPath id="clip-path-2">
      <rect id="Rectangle_608" data-name="Rectangle 608" class="cls-2" width="640" height="480" transform="translate(6136 8307)"/>
    </clipPath>
  </defs>
  <g id="Mask_Group_43" data-name="Mask Group 43" class="cls-3" transform="translate(-6769 -7211)">
    <g id="Group_187" data-name="Group 187" transform="translate(0 -240)">
      <g id="Mask_Group_42" data-name="Mask Group 42" class="cls-4" transform="translate(313 -1096)">
        <path id="Path_464" data-name="Path 464" class="cls-5" d="M10,0H630c5.523,0,10,6.7,10,14.967V531.311c0,8.266-4.477,14.966-10,14.966H10c-5.523,0-10-6.7-10-14.966V14.967C0,6.7,4.477,0,10,0Z" transform="translate(6136 8267.494)"/>
        <path id="Path_465" data-name="Path 465" class="cls-6" d="M0,0H185V396H0Z" transform="translate(6636 8391)"/>
        <path id="Path_466" data-name="Path 466" class="cls-6" d="M0,0H122.593V348.187H0Z" transform="translate(6111.407 8448)"/>
        <path id="Path_467" data-name="Path 467" class="cls-6" d="M0,0H80.314V350.919H0Z" transform="translate(6475.407 8447.715)"/>
        <path id="Path_468" data-name="Path 468" class="cls-6" d="M0,0H121.942V350.919H0Z" transform="translate(6555.407 8595.715)"/>
        <path id="Path_469" data-name="Path 469" class="cls-6" d="M0,0H132.494V306.366H0Z" transform="translate(6249.506 8490.268)"/>
        <path id="Path_470" data-name="Path 470" class="cls-6" d="M0,0H132.494V306.366H0Z" transform="translate(6297.506 8606.268)"/>
        <path id="Path_471" data-name="Path 471" class="cls-6" d="M0,0H132.494V306.366H0Z" transform="translate(6135.506 8645.268)"/>
        <path id="Path_472" data-name="Path 472" class="cls-6" d="M0,0H132.494V306.366H0Z" transform="translate(6422.506 8507.268)"/>
        <ellipse id="Ellipse_283" data-name="Ellipse 283" class="cls-7" cx="46" cy="46" rx="46" ry="46" transform="translate(6255.506 8358)"/>
      </g>
      <rect id="Rectangle_609" data-name="Rectangle 609" class="cls-7" width="27" height="26" transform="translate(6485 7378)"/>
      <rect id="Rectangle_610" data-name="Rectangle 610" class="cls-7" width="27" height="26" transform="translate(6594 7418)"/>
      <rect id="Rectangle_611" data-name="Rectangle 611" class="cls-7" width="20.208" height="19.459" transform="translate(6801 7393)"/>
      <rect id="Rectangle_612" data-name="Rectangle 612" class="cls-7" width="33.283" height="32.05" transform="translate(6975 7316)"/>
      <rect id="Rectangle_613" data-name="Rectangle 613" class="cls-7" width="27" height="26" transform="translate(6639 7418)"/>
      <rect id="Rectangle_614" data-name="Rectangle 614" class="cls-7" width="20.208" height="19.459" transform="translate(6834.679 7393)"/>
      <rect id="Rectangle_615" data-name="Rectangle 615" class="cls-7" width="33.283" height="32.05" transform="translate(7030.472 7316)"/>
      <rect id="Rectangle_616" data-name="Rectangle 616" class="cls-7" width="27" height="26" transform="translate(6485 7421)"/>
      <rect id="Rectangle_617" data-name="Rectangle 617" class="cls-7" width="27" height="26" transform="translate(6594 7461)"/>
      <rect id="Rectangle_618" data-name="Rectangle 618" class="cls-7" width="20.208" height="19.459" transform="translate(6801 7425.183)"/>
      <rect id="Rectangle_619" data-name="Rectangle 619" class="cls-7" width="33.283" height="32.05" transform="translate(6975 7369.007)"/>
      <rect id="Rectangle_620" data-name="Rectangle 620" class="cls-7" width="27" height="26" transform="translate(6639 7461)"/>
      <rect id="Rectangle_621" data-name="Rectangle 621" class="cls-7" width="20.208" height="19.459" transform="translate(6834.679 7425.183)"/>
      <rect id="Rectangle_622" data-name="Rectangle 622" class="cls-7" width="33.283" height="32.05" transform="translate(7030.472 7369.007)"/>
      <rect id="Rectangle_623" data-name="Rectangle 623" class="cls-7" width="27" height="26" transform="translate(6485 7468)"/>
      <rect id="Rectangle_624" data-name="Rectangle 624" class="cls-7" width="27" height="26" transform="translate(6594 7508)"/>
      <rect id="Rectangle_625" data-name="Rectangle 625" class="cls-7" width="20.208" height="19.459" transform="translate(6801 7460.358)"/>
      <rect id="Rectangle_627" data-name="Rectangle 627" class="cls-7" width="27" height="26" transform="translate(6639 7508)"/>
      <rect id="Rectangle_628" data-name="Rectangle 628" class="cls-7" width="20.208" height="19.459" transform="translate(6834.679 7460.358)"/>
      <rect id="Rectangle_630" data-name="Rectangle 630" class="cls-7" width="27" height="26" transform="translate(6485 7511)"/>
      <rect id="Rectangle_631" data-name="Rectangle 631" class="cls-7" width="27" height="26" transform="translate(6594 7551)"/>
      <rect id="Rectangle_632" data-name="Rectangle 632" class="cls-7" width="20.208" height="19.459" transform="translate(6801 7492.541)"/>
      <rect id="Rectangle_634" data-name="Rectangle 634" class="cls-7" width="27" height="26" transform="translate(6639 7551)"/>
      <rect id="Rectangle_635" data-name="Rectangle 635" class="cls-7" width="20.208" height="19.459" transform="translate(6834.679 7492.541)"/>
      <circle id="Ellipse_284" data-name="Ellipse 284" class="cls-7" cx="6.5" cy="6.5" r="6.5" transform="translate(6499 7259)"/>
      <circle id="Ellipse_285" data-name="Ellipse 285" class="cls-7" cx="6.5" cy="6.5" r="6.5" transform="translate(6715 7259)"/>
      <circle id="Ellipse_286" data-name="Ellipse 286" class="cls-7" cx="6.5" cy="6.5" r="6.5" transform="translate(6838 7259)"/>
      <circle id="Ellipse_287" data-name="Ellipse 287" class="cls-7" cx="10.5" cy="10.5" r="10.5" transform="translate(6514 7300)"/>
      <path id="Path_473" data-name="Path 473" class="cls-7" d="M10.5,0A10.5,10.5,0,1,1,0,10.5,10.5,10.5,0,0,1,10.5,0Z" transform="translate(6893 7343)"/>
      <circle id="Ellipse_288" data-name="Ellipse 288" class="cls-7" cx="10.5" cy="10.5" r="10.5" transform="translate(6711 7331)"/>
      <circle id="Ellipse_289" data-name="Ellipse 289" class="cls-7" cx="10.5" cy="10.5" r="10.5" transform="translate(6817 7295)"/>
      <circle id="Ellipse_290" data-name="Ellipse 290" class="cls-7" cx="10.5" cy="10.5" r="10.5" transform="translate(6931 7249)"/>
      <circle id="Ellipse_291" data-name="Ellipse 291" class="cls-7" cx="4" cy="4" r="4" transform="translate(6549 7242)"/>
      <circle id="Ellipse_292" data-name="Ellipse 292" class="cls-7" cx="4" cy="4" r="4" transform="translate(6689 7298)"/>
      <circle id="Ellipse_293" data-name="Ellipse 293" class="cls-7" cx="4" cy="4" r="4" transform="translate(7015 7268)"/>
      <circle id="Ellipse_294" data-name="Ellipse 294" class="cls-7" cx="4" cy="4" r="4" transform="translate(6906 7307)"/>
    </g>
  </g>
</svg>
