<?xml version="1.0" encoding="utf-8"?>
<!-- Generator: Adobe Illustrator 22.1.0, SVG Export Plug-In . SVG Version: 6.00 Build 0)  -->
<svg version="1.1" id="Layer_1" xmlns="http://www.w3.org/2000/svg" xmlns:xlink="http://www.w3.org/1999/xlink" x="0px" y="0px"
	 viewBox="0 0 320 243" style="enable-background:new 0 0 320 243;" xml:space="preserve">
<style type="text/css">
	.st0{fill:none;}
	.st1{fill:none;stroke:#707070;stroke-width:10.67;stroke-linecap:round;stroke-linejoin:round;stroke-dasharray:19.4,29.1;}
	.st2{fill:none;stroke:#707070;stroke-width:4.85;stroke-linecap:round;stroke-linejoin:round;stroke-dasharray:9.7,11.64;}
</style>
<g>
	<g id="Group_231">
		<g id="Rectangle_816" transform="translate(489 540) rotate(90)">
			<path class="st0" d="M-525.2,173.8h213.4c5.4,0,9.7,4.3,9.7,9.7v291c0,5.4-4.3,9.7-9.7,9.7h-213.4c-5.4,0-9.7-4.3-9.7-9.7v-291
				C-534.9,178.1-530.6,173.8-525.2,173.8z"/>
			<path class="st1" d="M-525.2,179.1h213.4c2.4,0,4.4,2,4.4,4.4v291c0,2.4-2,4.4-4.4,4.4h-213.4c-2.4,0-4.4-2-4.4-4.4v-291
				C-529.6,181.1-527.6,179.1-525.2,179.1z"/>
		</g>
	</g>
	<path id="Union_42" class="st2" d="M243.4,10.4v49.2h39.3V13.9 M99.9,17.4v80.1h15V18"/>
</g>
</svg>
