<?xml version="1.0" encoding="utf-8"?>
<!-- Generator: Adobe Illustrator 22.1.0, SVG Export Plug-In . SVG Version: 6.00 Build 0)  -->
<svg version="1.1" id="Layer_1" xmlns="http://www.w3.org/2000/svg" xmlns:xlink="http://www.w3.org/1999/xlink" x="0px" y="0px"
	 viewBox="0 0 320 240" style="enable-background:new 0 0 320 240;" xml:space="preserve">
<style type="text/css">
	.st0{fill:#707070;}
	.st1{fill:none;stroke:#707070;stroke-width:10.67;stroke-linecap:round;stroke-linejoin:round;stroke-dasharray:19.4,29.1;}
</style>
<path class="st0" d="M33.2,145.2h-9.7c-1.3,0-2.4-1.1-2.4-2.4s1.1-2.4,2.4-2.4h9.7c1.3,0,2.4,1.1,2.4,2.4S34.6,145.2,33.2,145.2z
	 M54.6,145.2h-9.7c-1.3,0-2.4-1.1-2.4-2.4s1.1-2.4,2.4-2.4h9.7c1.3,0,2.4,1.1,2.4,2.4S55.9,145.2,54.6,145.2z M75.9,145.2h-9.7
	c-1.3,0-2.4-1.1-2.4-2.4s1.1-2.4,2.4-2.4h9.7c1.3,0,2.4,1.1,2.4,2.4S77.2,145.2,75.9,145.2z M97.2,145.2h-9.7
	c-1.3,0-2.4-1.1-2.4-2.4s1.1-2.4,2.4-2.4h9.7c1.3,0,2.4,1.1,2.4,2.4S98.6,145.2,97.2,145.2z M97.6,161.4c-1.3,0-2.4-1.1-2.4-2.4
	v-9.7c0-1.3,1.1-2.4,2.4-2.4c1.3,0,2.4,1.1,2.4,2.4v9.7C100,160.3,98.9,161.4,97.6,161.4z M97.6,182.8c-1.3,0-2.4-1.1-2.4-2.4v-9.7
	c0-1.3,1.1-2.4,2.4-2.4c1.3,0,2.4,1.1,2.4,2.4v9.7C100,181.7,98.9,182.8,97.6,182.8z M97.6,204.1c-1.3,0-2.4-1.1-2.4-2.4V192
	c0-1.3,1.1-2.4,2.4-2.4c1.3,0,2.4,1.1,2.4,2.4v9.7C100,203,98.9,204.1,97.6,204.1z M97.6,225.5c-1.3,0-2.4-1.1-2.4-2.4v-9.7
	c0-1.3,1.1-2.4,2.4-2.4c1.3,0,2.4,1.1,2.4,2.4v9.7C100,224.4,98.9,225.5,97.6,225.5z M117.4,232.9c-1.3,0-2.4-1.1-2.4-2.4v-9.7
	c0-1.3,1.1-2.4,2.4-2.4c1.3,0,2.4,1.1,2.4,2.4v9.7C119.9,231.8,118.8,232.9,117.4,232.9z M117.4,211.6c-1.3,0-2.4-1.1-2.4-2.4v-9.7
	c0-1.3,1.1-2.4,2.4-2.4c1.3,0,2.4,1.1,2.4,2.4v9.7C119.9,210.5,118.8,211.6,117.4,211.6z M117.4,190.2c-1.3,0-2.4-1.1-2.4-2.4v-6.4
	h4.8l0,0l0,0l0,0v0.6c0.5,0.4,0.9,1.1,0.9,1.9c0,0.8-0.3,1.4-0.9,1.9v2.1C119.9,189.1,118.8,190.2,117.4,190.2z M139.7,186.2H130
	c-1.3,0-2.4-1.1-2.4-2.4c0-1.3,1.1-2.4,2.4-2.4h9.7c1.3,0,2.4,1.1,2.4,2.4C142.1,185.2,141,186.2,139.7,186.2z M161,186.2h-9.7
	c-1.3,0-2.4-1.1-2.4-2.4c0-1.3,1.1-2.4,2.4-2.4h9.7c1.3,0,2.4,1.1,2.4,2.4C163.4,185.2,162.3,186.2,161,186.2z M182.3,186.2h-9.7
	c-1.3,0-2.4-1.1-2.4-2.4c0-1.3,1.1-2.4,2.4-2.4h9.7c1.3,0,2.4,1.1,2.4,2.4C184.8,185.2,183.7,186.2,182.3,186.2z M203.7,186.2H194
	c-1.3,0-2.4-1.1-2.4-2.4c0-1.3,1.1-2.4,2.4-2.4h9.7c1.3,0,2.4,1.1,2.4,2.4C206.1,185.2,205,186.2,203.7,186.2z M225,186.2h-9.7
	c-1.3,0-2.4-1.1-2.4-2.4c0-1.3,1.1-2.4,2.4-2.4h9.7c1.3,0,2.4,1.1,2.4,2.4C227.5,185.2,226.4,186.2,225,186.2z M241.1,186.6
	c-0.5,0-1-0.1-1.3-0.4h-3.1c-1.3,0-2.4-1.1-2.4-2.4c0-1.3,1.1-2.4,2.4-2.4h6.9v4.8h-1.1C242.1,186.5,241.6,186.6,241.1,186.6z
	 M241.1,208c-1.3,0-2.4-1.1-2.4-2.4v-9.7c0-1.3,1.1-2.4,2.4-2.4c1.3,0,2.4,1.1,2.4,2.4v9.7C243.5,206.9,242.5,208,241.1,208z
	 M241.1,229.3c-1.3,0-2.4-1.1-2.4-2.4v-9.7c0-1.3,1.1-2.4,2.4-2.4c1.3,0,2.4,1.1,2.4,2.4v9.7C243.5,228.2,242.5,229.3,241.1,229.3z
	 M285.3,220.3c-1.3,0-2.4-1.1-2.4-2.4v-9.7c0-1.3,1.1-2.4,2.4-2.4c1.3,0,2.4,1.1,2.4,2.4v9.7C287.7,219.2,286.6,220.3,285.3,220.3z
	 M293.9,202.7h-9.7c-0.5,0-1-0.2-1.4-0.4v-4c0.4-0.3,0.9-0.4,1.4-0.4h9.7c1.3,0,2.4,1.1,2.4,2.4S295.2,202.7,293.9,202.7z
	 M315.2,202.7h-9.7c-1.3,0-2.4-1.1-2.4-2.4s1.1-2.4,2.4-2.4h9.7c1.3,0,2.4,1.1,2.4,2.4S316.6,202.7,315.2,202.7z"/>
<path class="st1" d="M310,13.3v213.4c0,2.4-2,4.4-4.4,4.4h-291c-2.4,0-4.4-2-4.4-4.4V13.3c0-2.4,2-4.4,4.4-4.4h291
	C308,9,310,10.9,310,13.3z"/>
</svg>
