<?xml version="1.0" encoding="utf-8"?>
<!-- Generator: Adobe Illustrator 22.1.0, SVG Export Plug-In . SVG Version: 6.00 Build 0)  -->
<svg version="1.1" id="Layer_1" xmlns="http://www.w3.org/2000/svg" xmlns:xlink="http://www.w3.org/1999/xlink" x="0px" y="0px"
	 viewBox="0 0 320 240" style="enable-background:new 0 0 320 240;" xml:space="preserve">
<style type="text/css">
	.st0{fill:none;}
	.st1{fill:none;stroke:#707070;stroke-width:10.67;stroke-linecap:round;stroke-linejoin:round;stroke-dasharray:19.4,29.1;}
	.st2{fill:none;stroke:#707070;stroke-width:4.85;stroke-linecap:round;stroke-dasharray:9.7,11.64;}
</style>
<g>
	<g id="Group_233">
		<g id="Rectangle_818" transform="translate(815 292) rotate(90)">
			<path class="st0" d="M-278.7,499.8h213.4c5.4,0,9.7,4.3,9.7,9.7v291c0,5.4-4.3,9.7-9.7,9.7h-213.4c-5.4,0-9.7-4.3-9.7-9.7v-291
				C-288.4,504.1-284.1,499.8-278.7,499.8z"/>
			<path class="st1" d="M-278.7,505.1h213.4c2.4,0,4.4,2,4.4,4.4v291c0,2.4-2,4.4-4.4,4.4h-213.4c-2.4,0-4.4-2-4.4-4.4v-291
				C-283.1,507.1-281.1,505.1-278.7,505.1z"/>
		</g>
	</g>
	<g id="Mask_Group_38" transform="translate(313 -1096)">
		<path id="Union_43_1_" class="st2" d="M-133.6,1323.7v-142.6H-2.7"/>
		<path id="Union_43" class="st2" d="M-304.3,1293.9h14.9v-57.8h77.9v89.5"/>
	</g>
</g>
</svg>
