<svg xmlns="http://www.w3.org/2000/svg" xmlns:xlink="http://www.w3.org/1999/xlink" viewBox="0 0 320 240">
  <defs>
    <style>
      .cls-1 {
        fill: none;
        stroke: #707070;
        stroke-linecap: round;
        stroke-linejoin: round;
        stroke-width: 11px;
        stroke-dasharray: 20 30;
      }

      .cls-2 {
        fill: #c62626;
      }

      .cls-3 {
        clip-path: url(#clip-path);
      }

      .cls-4 {
        clip-path: url(#clip-path-2);
      }

      .cls-5 {
        fill: #6900ff;
      }

      .cls-6 {
        fill: #ff00a5;
      }

      .cls-7 {
        fill: #ffc300;
      }
    </style>
    <clipPath id="clip-path">
      <rect id="Rectangle_607" data-name="Rectangle 607" class="cls-1" width="240" height="320" transform="translate(6769 7211) rotate(90)"/>
    </clipPath>
    <clipPath id="clip-path-2">
      <rect id="Rectangle_578" data-name="Rectangle 578" class="cls-2" width="640" height="480" transform="translate(6136 8307)"/>
    </clipPath>
  </defs>
  <g id="Mask_Group_41" data-name="Mask Group 41" class="cls-3" transform="translate(-6449 -7211)">
    <g id="Group_186" data-name="Group 186">
      <g id="Mask_Group_40" data-name="Mask Group 40" class="cls-4" transform="translate(313 -1096)">
        <path id="Path_454" data-name="Path 454" class="cls-5" d="M10,0H630c5.523,0,10,6.7,10,14.967V531.311c0,8.266-4.477,14.966-10,14.966H10c-5.523,0-10-6.7-10-14.966V14.967C0,6.7,4.477,0,10,0Z" transform="translate(6136 8267.494)"/>
        <path id="Path_455" data-name="Path 455" class="cls-6" d="M0,0H185V396H0Z" transform="translate(6636 8391)"/>
        <path id="Path_456" data-name="Path 456" class="cls-6" d="M0,0H122.593V348.187H0Z" transform="translate(6111.407 8448)"/>
        <path id="Path_457" data-name="Path 457" class="cls-6" d="M0,0H80.314V350.919H0Z" transform="translate(6475.407 8447.715)"/>
        <path id="Path_458" data-name="Path 458" class="cls-6" d="M0,0H121.942V350.919H0Z" transform="translate(6555.407 8595.715)"/>
        <path id="Path_459" data-name="Path 459" class="cls-6" d="M0,0H132.494V306.366H0Z" transform="translate(6249.506 8490.268)"/>
        <path id="Path_460" data-name="Path 460" class="cls-6" d="M0,0H132.494V306.366H0Z" transform="translate(6297.506 8606.268)"/>
        <path id="Path_461" data-name="Path 461" class="cls-6" d="M0,0H132.494V306.366H0Z" transform="translate(6135.506 8645.268)"/>
        <path id="Path_462" data-name="Path 462" class="cls-6" d="M0,0H132.494V306.366H0Z" transform="translate(6422.506 8507.268)"/>
      </g>
      <rect id="Rectangle_579" data-name="Rectangle 579" class="cls-7" width="27" height="26" transform="translate(6485 7372)"/>
      <rect id="Rectangle_580" data-name="Rectangle 580" class="cls-7" width="27" height="26" transform="translate(6594 7418)"/>
      <rect id="Rectangle_582" data-name="Rectangle 582" class="cls-7" width="33.283" height="32.05" transform="translate(6975 7316)"/>
      <rect id="Rectangle_583" data-name="Rectangle 583" class="cls-7" width="27" height="26" transform="translate(6639 7418)"/>
      <rect id="Rectangle_585" data-name="Rectangle 585" class="cls-7" width="33.283" height="32.05" transform="translate(7030.472 7316)"/>
      <rect id="Rectangle_586" data-name="Rectangle 586" class="cls-7" width="27" height="26" transform="translate(6485 7415)"/>
      <rect id="Rectangle_587" data-name="Rectangle 587" class="cls-7" width="27" height="26" transform="translate(6594 7461)"/>
      <rect id="Rectangle_589" data-name="Rectangle 589" class="cls-7" width="33.283" height="32.05" transform="translate(6975 7369.007)"/>
      <rect id="Rectangle_590" data-name="Rectangle 590" class="cls-7" width="27" height="26" transform="translate(6639 7461)"/>
      <rect id="Rectangle_592" data-name="Rectangle 592" class="cls-7" width="33.283" height="32.05" transform="translate(7030.472 7369.007)"/>
      <rect id="Rectangle_593" data-name="Rectangle 593" class="cls-7" width="27" height="26" transform="translate(6485 7468)"/>
      <rect id="Rectangle_594" data-name="Rectangle 594" class="cls-7" width="27" height="26" transform="translate(6594 7508)"/>
      <rect id="Rectangle_596" data-name="Rectangle 596" class="cls-7" width="33.283" height="32.05" transform="translate(6975 7426.943)"/>
      <rect id="Rectangle_597" data-name="Rectangle 597" class="cls-7" width="27" height="26" transform="translate(6639 7508)"/>
      <rect id="Rectangle_599" data-name="Rectangle 599" class="cls-7" width="33.283" height="32.05" transform="translate(7030.472 7426.943)"/>
      <rect id="Rectangle_600" data-name="Rectangle 600" class="cls-7" width="27" height="26" transform="translate(6485 7511)"/>
      <rect id="Rectangle_601" data-name="Rectangle 601" class="cls-7" width="27" height="26" transform="translate(6594 7551)"/>
      <rect id="Rectangle_603" data-name="Rectangle 603" class="cls-7" width="33.283" height="32.05" transform="translate(6975 7479.949)"/>
      <rect id="Rectangle_604" data-name="Rectangle 604" class="cls-7" width="27" height="26" transform="translate(6639 7551)"/>
      <rect id="Rectangle_606" data-name="Rectangle 606" class="cls-7" width="33.283" height="32.05" transform="translate(7030.472 7479.949)"/>
      <circle id="Ellipse_272" data-name="Ellipse 272" class="cls-7" cx="6.5" cy="6.5" r="6.5" transform="translate(6499 7259)"/>
      <circle id="Ellipse_273" data-name="Ellipse 273" class="cls-7" cx="6.5" cy="6.5" r="6.5" transform="translate(6715 7259)"/>
      <circle id="Ellipse_274" data-name="Ellipse 274" class="cls-7" cx="6.5" cy="6.5" r="6.5" transform="translate(6838 7259)"/>
      <circle id="Ellipse_275" data-name="Ellipse 275" class="cls-7" cx="10.5" cy="10.5" r="10.5" transform="translate(6639 7311)"/>
      <path id="Path_463" data-name="Path 463" class="cls-7" d="M10.5,0A10.5,10.5,0,1,1,0,10.5,10.5,10.5,0,0,1,10.5,0Z" transform="translate(6893 7343)"/>
      <circle id="Ellipse_276" data-name="Ellipse 276" class="cls-7" cx="10.5" cy="10.5" r="10.5" transform="translate(6565 7245)"/>
      <circle id="Ellipse_277" data-name="Ellipse 277" class="cls-7" cx="10.5" cy="10.5" r="10.5" transform="translate(6817 7295)"/>
      <circle id="Ellipse_278" data-name="Ellipse 278" class="cls-7" cx="10.5" cy="10.5" r="10.5" transform="translate(6931 7249)"/>
      <circle id="Ellipse_281" data-name="Ellipse 281" class="cls-7" cx="4" cy="4" r="4" transform="translate(7015 7268)"/>
      <circle id="Ellipse_282" data-name="Ellipse 282" class="cls-7" cx="4" cy="4" r="4" transform="translate(6906 7307)"/>
    </g>
  </g>
</svg>
