<?xml version="1.0" encoding="utf-8"?>
<!-- Generator: Adobe Illustrator 22.1.0, SVG Export Plug-In . SVG Version: 6.00 Build 0)  -->
<svg version="1.1" id="Layer_1" xmlns="http://www.w3.org/2000/svg" xmlns:xlink="http://www.w3.org/1999/xlink" x="0px" y="0px"
	 viewBox="0 0 158 217" style="enable-background:new 0 0 158 217;" xml:space="preserve">
<style type="text/css">
	.st0{fill:#CCCCCC;}
	.st1{fill:#00E66E;}
	.st2{opacity:0.22;fill:#19AA55;}
	.st3{fill:#4D4D4D;}
	.st4{opacity:0.22;}
	.st5{fill:#19AA55;}
	.st6{fill:#FFC300;}
	.st7{fill:#FF4100;}
	.st8{fill:none;stroke:#7C6451;stroke-width:4.5;stroke-miterlimit:10;}
</style>
<g>
	<ellipse class="st0" cx="77.8" cy="202.7" rx="52" ry="14.3"/>
	<path class="st1" d="M57.7,202.7L57.7,202.7c7.5,0,9.2-4.1,9.2-9.2l6.5-50.6l-28.9-1.3l4.1,52C45.1,199.8,50.6,203.1,57.7,202.7z"
		/>
	<path class="st2" d="M68.4,182c0,0-4.3-7.5-20.3-8c-1,0-1,0-1,0l-2.5-32.5c0,0,28.9,1.3,28.9,1.3C73.4,142.8,68.4,182,68.4,182z"/>
	<g>
		<path class="st1" d="M96.9,202.7L96.9,202.7c-7.5,0-9.2-4.1-9.2-9.2l-6.5-50.6l28.9-1.3l-4.1,52
			C109.6,199.8,104.1,203.1,96.9,202.7z"/>
		<path class="st2" d="M86.3,182c0,0,4.3-7.5,20.3-8c1,0,1,0,1,0l2.5-32.5c0,0-28.9,1.3-28.9,1.3C81.3,142.8,86.3,182,86.3,182z"/>
	</g>
	<path class="st1" d="M155.7,107.7c-2.5-45.3-36.3-74.5-77.8-74.5h0c-41.4,0-75.3,29.2-77.8,74.5c0,0.7-0.2,3.4-0.1,4.1
		c2.4,36.1,36.4,59.3,77.8,59.3h0c41.4,0,75.3-23.2,77.8-59.3c0-0.5,0-1,0-1.5C155.7,109.5,155.7,108.7,155.7,107.7z"/>
	<g>
		<path class="st3" d="M69,81.5c0,3.3-1.7,6.2-5.3,6.2c-3.3,0-4.8-3.4-4.8-6.3c0-2.9,1.9-6,5.1-6C67.1,75.5,69,78.3,69,81.5z"/>
		<path class="st3" d="M96.9,81.5c0,3.3-1.7,6.2-5.3,6.2c-3.3,0-4.8-3.4-4.8-6.3c0-2.9,1.9-6,5.1-6C95.1,75.5,96.9,78.3,96.9,81.5z"
			/>
	</g>
	<g class="st4">
		<path class="st5" d="M55.1,36.2c0.1,0,0.2-0.1,0.4-0.1C55.6,36.1,55.5,36.1,55.1,36.2z"/>
		<path class="st5" d="M55.1,36.2c-21.9,6.3-35.3,19.6-43,32c-7.5,12.1-11.3,25.4-12,39.5c0,0.8,0,1.4,0.1,2
			c-0.1,0.3-0.2,0.6-0.2,0.9c0,0.3,0,0.7,0,1.1c0,0,0,0,0,0c0,0.7,0.1,1.4,0.2,2.1c0.1,0.6,0.1,1.2,0.2,1.7c0.1,0.4,0.1,0.7,0.2,1.1
			c0.2,1.7,0.6,3.3,1,4.9c0.1,0.5,0.3,1,0.4,1.6c0.1,0.5,0.3,1,0.4,1.5c0.3,1,0.6,2,1,3c0.2,0.4,0.3,0.9,0.5,1.3
			c0,0.1,0.1,0.2,0.1,0.3c0.2,0.5,0.4,0.9,0.6,1.4c0.2,0.5,0.4,1,0.6,1.4c0.3,0.7,0.6,1.3,1,2c0.3,0.6,0.6,1.1,0.9,1.6
			c0.4,0.6,0.7,1.3,1.1,1.9c0.4,0.7,0.8,1.3,1.3,2c0.4,0.6,0.8,1.1,1.2,1.7c0.3,0.5,0.7,0.9,1.1,1.4c0.1,0.1,0.2,0.3,0.3,0.4
			c0.2,0.3,0.4,0.6,0.7,0.8c0.3,0.4,0.7,0.8,1,1.2c0.3,0.4,0.7,0.8,1,1.2c0.7,0.8,1.4,1.5,2.2,2.3c0.7,0.7,1.4,1.4,2.1,2
			c3.4,3.1,7.5,6.2,12.3,8.9c0.8,0.4,1.6,0.9,2.5,1.3c0.1,0.1,0.2,0.1,0.3,0.1c0.9,0.5,1.9,0.9,2.8,1.4c1.1,0.5,2.2,1,3.3,1.5
			c0,0,0.1,0,0.1,0c0.9,0.4,1.9,0.8,2.8,1.1c0.3,0.1,0.6,0.2,0.8,0.3c0.5,0.2,1.1,0.4,1.6,0.6c0.6,0.2,1.2,0.4,1.8,0.6
			c2.4,0.7,4.8,1.4,7.4,2c-2.7-0.8-15-5.8-27.1-29.1c-3.6-7-5.8-16.3-7.1-23.4c0-0.4,0.4-26.8,7.2-43.3
			C40.2,43.1,52.7,37.1,55.1,36.2z"/>
	</g>
	<path class="st6" d="M39.9,134.1c0,1.6-0.8,3-2.5,3c-1.6,0-2.3-1.6-2.3-3s0.9-2.9,2.4-2.9C39,131.2,39.9,132.5,39.9,134.1z"/>
	<path class="st6" d="M51,146.3c0,1.6-0.8,3-2.5,3c-1.6,0-2.3-1.6-2.3-3c0-1.4,0.9-2.9,2.4-2.9C50.1,143.4,51,144.7,51,146.3z"/>
	<path class="st6" d="M85.5,157.6c0-1.6,0.8-3,2.5-3c1.6,0,2.3,1.6,2.3,3c0,1.4-0.9,2.9-2.4,2.9C86.4,160.5,85.5,159.2,85.5,157.6z"
		/>
	<path class="st6" d="M74.4,145.4c0-1.6,0.8-3,2.5-3c1.6,0,2.3,1.6,2.3,3c0,1.4-0.9,2.9-2.4,2.9C75.3,148.3,74.4,147,74.4,145.4z"/>
	<path class="st6" d="M62.7,157.6c0-1.6,0.8-3,2.5-3c1.6,0,2.3,1.6,2.3,3c0,1.4-0.9,2.9-2.4,2.9C63.6,160.5,62.7,159.2,62.7,157.6z"
		/>
	<path class="st6" d="M123.7,139.4c0-1.6,0.8-3,2.5-3c1.6,0,2.3,1.6,2.3,3s-0.9,2.9-2.4,2.9C124.6,142.3,123.7,140.9,123.7,139.4z"
		/>
	<path class="st6" d="M112,151.5c0-1.6,0.8-3,2.5-3c1.6,0,2.3,1.6,2.3,3c0,1.4-0.9,2.9-2.4,2.9C112.9,154.4,112,153.1,112,151.5z"/>
	<path class="st6" d="M100.3,146.3c0,1.6-0.8,3-2.5,3c-1.6,0-2.3-1.6-2.3-3c0-1.4,0.9-2.9,2.4-2.9
		C99.4,143.4,100.3,144.7,100.3,146.3z"/>
	<path class="st6" d="M112,134.1c0,1.6-0.8,3-2.5,3c-1.6,0-2.3-1.6-2.3-3c0-1.4,0.9-2.9,2.4-2.9C111.1,131.2,112,132.5,112,134.1z"
		/>
	<path class="st7" d="M123.7,47.2c0,4.2-26.3-10.8-56.2-10.8S27.6,57.6,27.6,47s-0.1-33.9,31.3-34.5
		C96.9,11.8,123.7,35.3,123.7,47.2z"/>
	<path class="st7" d="M94.5,128.4c-10.4,1.2-12.6-6.2-16.5-6.4c-3.5-0.2-5.8,6.5-16.5,5.6C51,126.7,46,119,46,119
		c13.3,3.3,22.7-6.1,32-6c10.5,0.1,15.5,10.1,32.2,7.3C112.4,119.9,98.7,127.9,94.5,128.4z"/>
	<path class="st7" d="M152.1,84.9C150.1,88.6,149,71,132,57c-8.3-6.8-9-10.4-6-9c9,4,16.4,6.8,20,8C158,60,158.7,72.6,152.1,84.9z"
		/>
	<path class="st8" d="M74.4,84.8c0,14.3-7.9,25.9-25.9,25.9c-21.1,0-25.9-11.6-25.9-25.9s11.6-18.1,25.9-18.1S74.4,70.5,74.4,84.8z"
		/>
	<path class="st8" d="M81.2,84.8c0,14.3,7.9,25.9,25.9,25.9c21.1,0,25.9-11.6,25.9-25.9s-11.6-18.1-25.9-18.1S81.2,70.5,81.2,84.8z"
		/>
</g>
</svg>
