<?xml version="1.0" encoding="utf-8"?>
<!-- Generator: Adobe Illustrator 22.1.0, SVG Export Plug-In . SVG Version: 6.00 Build 0)  -->
<svg version="1.1" id="Layer_1" xmlns="http://www.w3.org/2000/svg" xmlns:xlink="http://www.w3.org/1999/xlink" x="0px" y="0px"
	 viewBox="0 0 120 240" style="enable-background:new 0 0 120 240;" xml:space="preserve">
<style type="text/css">
	.st0{fill:#00E66E;}
	.st1{fill:#FF00A5;}
</style>
<path id="Rectangle_333" class="st0" d="M120,10v220c0,5.5-4.5,10-10,10H10c-5.5,0-10-4.5-10-10V10C0,4.5,4.5,0,10,0h100
	C115.5,0,120,4.5,120,10z"/>
<path id="Rectangle_331" class="st1" d="M2.5,61.8h115c1.4,0,2.5,0.4,2.5,0.8v18.6c0,0.5-1.1,0.8-2.5,0.8H2.5C1.1,82,0,81.6,0,81.2
	V62.6C0,62.1,1.1,61.8,2.5,61.8z"/>
<path id="Rectangle_331_1_" class="st1" d="M2.5,100h115c1.4,0,2.5,0.8,2.5,1.8v39.4c0,1-1.1,1.8-2.5,1.8H2.5
	c-1.4,0-2.5-0.8-2.5-1.8v-39.4C0,100.8,1.1,100,2.5,100z"/>
</svg>
