<?xml version="1.0" encoding="utf-8"?>
<!-- Generator: Adobe Illustrator 22.1.0, SVG Export Plug-In . SVG Version: 6.00 Build 0)  -->
<svg version="1.1" id="Layer_1" xmlns="http://www.w3.org/2000/svg" xmlns:xlink="http://www.w3.org/1999/xlink" x="0px" y="0px"
	 viewBox="0 0 480 120" style="enable-background:new 0 0 480 120;" xml:space="preserve">
<style type="text/css">
	.st0{fill:#00FFE6;}
	.st1{fill:#FF00A5;}
</style>
<path id="Rectangle_332" class="st0" d="M10,0h460c5.5,0,10,4.5,10,10v100c0,5.5-4.5,10-10,10H10c-5.5,0-10-4.5-10-10V10
	C0,4.5,4.5,0,10,0z"/>
<g>
	<rect x="51.8" y="47.8" class="st1" width="24.5" height="24.5"/>
	<rect x="95.8" y="47.8" class="st1" width="24.5" height="24.5"/>
	<rect x="139.8" y="47.8" class="st1" width="24.5" height="24.5"/>
	<rect x="183.8" y="47.8" class="st1" width="24.5" height="24.5"/>
	<rect x="227.8" y="47.8" class="st1" width="24.5" height="24.5"/>
	<rect x="271.8" y="47.8" class="st1" width="24.5" height="24.5"/>
	<rect x="315.8" y="47.8" class="st1" width="24.5" height="24.5"/>
	<rect x="359.8" y="47.8" class="st1" width="24.5" height="24.5"/>
	<rect x="403.8" y="47.8" class="st1" width="24.5" height="24.5"/>
</g>
</svg>
