<?xml version="1.0" encoding="utf-8"?>
<!-- Generator: Adobe Illustrator 22.1.0, SVG Export Plug-In . SVG Version: 6.00 Build 0)  -->
<svg version="1.1" id="Layer_1" xmlns="http://www.w3.org/2000/svg" xmlns:xlink="http://www.w3.org/1999/xlink" x="0px" y="0px"
	 viewBox="0 0 1240 1240" style="enable-background:new 0 0 1240 1240;" xml:space="preserve">
<style type="text/css">
	.st0{fill:#41FF69;}
	.st1{fill:#4D4D4D;}
</style>
<path class="st0" d="M620,1240L620,1240C277.6,1240,0,962.4,0,620l0,0C0,277.6,277.6,0,620,0l0,0c342.4,0,620,277.6,620,620l0,0
	C1240,962.4,962.4,1240,620,1240z"/>
<path class="st1" d="M710.4,249.9c-0.2,17.6-8.9,33.4-28.5,33.2c-17.8-0.2-25.6-18.4-25.4-33.8s10.4-32.1,27.4-31.9
	C700.7,217.5,710.7,232.7,710.4,249.9z"/>
<path class="st1" d="M571.5,248.1c-0.2,17.6-8.9,33.4-28.5,33.2c-17.8-0.2-25.6-18.4-25.4-33.8s10.4-32.1,27.4-31.9
	C561.7,215.8,571.7,231,571.5,248.1z"/>
</svg>
