<?xml version="1.0" encoding="utf-8"?>
<!-- Generator: Adobe Illustrator 22.1.0, SVG Export Plug-In . SVG Version: 6.00 Build 0)  -->
<svg version="1.1" id="Layer_1" xmlns="http://www.w3.org/2000/svg" xmlns:xlink="http://www.w3.org/1999/xlink" x="0px" y="0px"
	 viewBox="0 0 440 440" style="enable-background:new 0 0 440 440;" xml:space="preserve">
<style type="text/css">
	.st0{clip-path:url(#SVGID_2_);}
	.st1{fill:#F2F2F2;}
	.st2{fill:#4D4D4D;}
</style>
<g>
	<defs>
		<path id="SVGID_1_" d="M220,440L220,440C98.5,440,0,341.5,0,220l0,0C0,98.5,98.5,0,220,0l0,0c121.5,0,220,98.5,220,220l0,0
			C440,341.5,341.5,440,220,440z"/>
	</defs>
	<clipPath id="SVGID_2_">
		<use xlink:href="#SVGID_1_"  style="overflow:visible;"/>
	</clipPath>
	<g class="st0">
		<rect x="-78.6" y="-66.6" class="st1" width="544.5" height="544.5"/>
		<g>
			<g id="XMLID_8_">
				<g>
					
						<rect x="382" y="-497.6" transform="matrix(0.7071 -0.7071 0.7071 0.7071 116.4953 284.826)" class="st2" width="40.1" height="998.8"/>
				</g>
				<g>
				</g>
			</g>
			<g id="XMLID_7_">
				<g>
					
						<rect x="325.8" y="-439.2" transform="matrix(0.7071 -0.7071 0.7071 0.7071 58.717 262.1396)" class="st2" width="40.1" height="998.8"/>
				</g>
				<g>
				</g>
			</g>
			<g id="XMLID_6_">
				<g>
					
						<rect x="269.5" y="-380.8" transform="matrix(0.7071 -0.7071 0.7071 0.7071 0.9386 239.4531)" class="st2" width="40.1" height="998.8"/>
				</g>
				<g>
				</g>
			</g>
			<g id="XMLID_5_">
				<g>
					
						<rect x="213.2" y="-322.4" transform="matrix(0.7071 -0.7071 0.7071 0.7071 -56.8397 216.7666)" class="st2" width="40.1" height="998.8"/>
				</g>
				<g>
				</g>
			</g>
			<g id="XMLID_4_">
				<g>
					
						<rect x="156.9" y="-264" transform="matrix(0.7071 -0.7071 0.7071 0.7071 -114.6181 194.0801)" class="st2" width="40.1" height="998.8"/>
				</g>
				<g>
				</g>
			</g>
			<g id="XMLID_3_">
				<g>
					
						<rect x="100.7" y="-205.6" transform="matrix(0.7071 -0.7071 0.7071 0.7071 -172.3964 171.3937)" class="st2" width="40.1" height="998.8"/>
				</g>
				<g>
				</g>
			</g>
			<g id="XMLID_2_">
				<g>
					
						<rect x="44.4" y="-147.2" transform="matrix(0.7071 -0.7071 0.7071 0.7071 -230.1748 148.7072)" class="st2" width="40.1" height="998.8"/>
				</g>
				<g>
				</g>
			</g>
			<g id="XMLID_1_">
				<g>
					
						<rect x="-11.9" y="-88.8" transform="matrix(0.7071 -0.7071 0.7071 0.7071 -287.9531 126.0207)" class="st2" width="40.1" height="998.8"/>
				</g>
				<g>
				</g>
			</g>
		</g>
	</g>
</g>
</svg>
