<?xml version="1.0" encoding="utf-8"?>
<!-- Generator: Adobe Illustrator 22.1.0, SVG Export Plug-In . SVG Version: 6.00 Build 0)  -->
<svg version="1.1" id="Layer_1" xmlns="http://www.w3.org/2000/svg" xmlns:xlink="http://www.w3.org/1999/xlink" x="0px" y="0px"
	 viewBox="0 0 442 440" style="enable-background:new 0 0 442 440;" xml:space="preserve">
<style type="text/css">
	.st0{fill:#4D4D4D;}
</style>
<g>
	<path class="st0" d="M221,434.7c-13.5,0-26.9-1.3-40.1-3.7c-5.8-1.1-9.5-6.6-8.4-12.3c1.1-5.8,6.6-9.5,12.3-8.4
		c11.8,2.2,24,3.3,36.2,3.3c0.8,0,1.6,0.1,2.3,0.3c0.8-0.2,1.6-0.3,2.3-0.3c12.2-0.3,24.3-1.7,36.1-4.2c5.7-1.2,11.3,2.4,12.5,8.1
		s-2.4,11.3-8.1,12.5c-13.1,2.8-26.5,4.4-40,4.7c-0.9,0-1.8-0.1-2.5-0.3C222.7,434.6,221.8,434.7,221,434.7z M128.6,412.7
		c-1.6,0-3.2-0.4-4.8-1.2c-12-6-23.4-13.3-34.1-21.5c-4.6-3.5-5.5-10.1-2-14.8c3.5-4.6,10.1-5.5,14.8-2c9.7,7.4,20,13.9,30.7,19.3
		c5.2,2.6,7.3,9,4.7,14.1C136.1,410.7,132.4,412.7,128.6,412.7z M317.7,410.5c-3.8,0-7.4-2-9.3-5.6c-2.7-5.2-0.8-11.5,4.3-14.2
		c10.6-5.7,20.9-12.5,30.2-20.1c4.5-3.6,11.2-2.9,14.8,1.6c3.6,4.5,2.9,11.2-1.6,14.8c-10.4,8.4-21.8,15.9-33.6,22.2
		C321.1,410.1,319.4,410.5,317.7,410.5z M56.1,351.6c-3.2,0-6.4-1.5-8.5-4.3c-8-10.8-15-22.3-20.9-34.4c-2.5-5.3-0.3-11.5,4.9-14.1
		c5.3-2.5,11.5-0.3,14.1,4.9c5.3,10.9,11.6,21.4,18.8,31.1c3.5,4.7,2.4,11.3-2.2,14.7C60.4,350.9,58.3,351.6,56.1,351.6z
		 M388.7,347.7c-2.1,0-4.2-0.6-6-2c-4.8-3.3-6-10-2.5-14.7c7-10,13.1-20.5,18.1-31.5c2.4-5.3,8.7-7.6,14-5.3c5.3,2.4,7.6,8.7,5.3,14
		c-5.6,12.2-12.3,24-20,34.9C395.3,346.1,392,347.7,388.7,347.7z M18.7,264.3c-5.1,0-9.6-3.6-10.3-8.8c-2-11.9-3-24.2-3-36.4
		c0-1.3,0-2.5,0-3.7c0.1-5.9,4.9-10.4,10.7-10.3s10.4,4.9,10.3,10.7c0,1.2,0,2.2,0,3.4c0,11,1,22.1,2.7,32.9
		c1,5.8-2.9,11.2-8.6,12.2C19.9,264.2,19.3,264.3,18.7,264.3z M423.9,259.5c-0.5,0-1,0-1.6-0.1c-5.8-0.9-9.8-6.1-8.9-12
		c1.4-9.3,2-18.8,2-28.2c0-2.6-0.1-5.4-0.2-8.1c-0.2-5.9,4.3-10.7,10.1-10.9c5.9-0.2,10.7,4.3,10.9,10.1c0.1,2.9,0.2,6,0.2,8.9
		c0,10.4-0.8,21-2.2,31.2C433.6,255.7,429,259.5,423.9,259.5z M24.9,169.6c-1,0-2-0.2-3.1-0.5c-5.6-1.7-8.7-7.6-7-13.2
		c3.9-12.8,9.1-25.4,15.3-37.3c2.7-5.2,9.1-7.1,14.2-4.4s7.1,9.1,4.4,14.2C43,139.1,38.4,150.5,34.8,162
		C33.6,166.7,29.4,169.6,24.9,169.6z M415.6,164.9c-4.4,0-8.5-2.8-10-7.2c-3.8-11.5-8.8-22.6-14.6-33.2c-2.8-5.1-1-11.5,4.1-14.3
		s11.5-1,14.3,4.1c6.5,11.7,12,24.1,16.3,36.9c1.9,5.6-1.2,11.5-6.6,13.4C417.8,164.7,416.6,164.9,415.6,164.9z M73,87.8
		c-2.6,0-5.3-1-7.3-2.9c-4.2-4-4.3-10.7-0.3-14.9c9.3-9.7,19.5-18.5,30.4-26.3c4.8-3.4,11.3-2.2,14.7,2.4c3.4,4.8,2.2,11.3-2.4,14.7
		c-10,7-19.2,15-27.6,23.7C78.5,86.7,75.8,87.8,73,87.8z M365.4,84.3c-2.7,0-5.4-1-7.4-3c-8.6-8.6-18.1-16.3-28-23.1
		c-4.8-3.3-6-9.9-2.8-14.6c3.3-4.8,9.9-6,14.6-2.8c11.1,7.5,21.6,16.1,31,25.6c4.1,4.1,4.2,10.8,0.1,14.9
		C370.9,83.2,368.1,84.3,365.4,84.3z M152.7,36.3c-4.4,0-8.4-2.7-10-7c-2-5.5,1-11.5,6.4-13.5c12.7-4.5,25.8-7.7,39-9.8
		c5.8-0.9,11.1,3.1,12,8.9s-3.1,11.1-8.9,12c-12,1.9-23.8,4.8-35.2,8.8C155.1,36.1,153.9,36.3,152.7,36.3z M284.5,34.8
		c-1.1,0-2.1-0.2-3.2-0.5c-11.5-3.7-23.4-6.4-35.4-7.9c-5.8-0.8-9.9-6-9.2-11.8c0.8-5.8,6-9.9,11.8-9.2c13.4,1.7,26.5,4.7,39.3,8.8
		c5.6,1.8,8.6,7.8,6.7,13.3C293.1,31.8,288.9,34.8,284.5,34.8z"/>
</g>
</svg>
