<?xml version="1.0" encoding="utf-8"?>
<!-- Generator: Adobe Illustrator 22.1.0, SVG Export Plug-In . SVG Version: 6.00 Build 0)  -->
<svg version="1.1" id="Layer_1" xmlns="http://www.w3.org/2000/svg" xmlns:xlink="http://www.w3.org/1999/xlink" x="0px" y="0px"
	 viewBox="0 0 338 338" style="enable-background:new 0 0 338 338;" xml:space="preserve">
<style type="text/css">
	.st0{fill:#FF00A5;}
	.st1{fill:#FFC300;}
	.st2{fill:#FF4100;}
	.st3{fill:#00FFE6;}
	.st4{fill:#6900FF;}
</style>
<path id="Path_84" class="st0" d="M169,338L169,338C75.7,338,0,262.4,0,169c0,0,0,0,0,0l0,0C0,75.7,75.6,0,169,0c0,0,0,0,0,0l0,0
	c93.3,0,169,75.6,169,169c0,0,0,0,0,0l0,0C338,262.3,262.4,338,169,338C169,338,169,338,169,338z"/>
<rect x="-229" y="-504.5" class="st0" width="214" height="214"/>
<rect x="-843" y="-504.5" class="st1" width="214" height="214"/>
<rect x="342" y="-504.5" class="st2" width="214" height="214"/>
<rect x="-1431" y="-504.5" class="st3" width="214" height="214"/>
<rect x="737.2" y="-504.5" class="st4" width="214" height="214"/>
</svg>
