<?xml version="1.0" encoding="utf-8"?>
<!-- Generator: Adobe Illustrator 22.1.0, SVG Export Plug-In . SVG Version: 6.00 Build 0)  -->
<svg version="1.1" id="Layer_1" xmlns="http://www.w3.org/2000/svg" xmlns:xlink="http://www.w3.org/1999/xlink" x="0px" y="0px"
	 viewBox="0 0 132 132" style="enable-background:new 0 0 132 132;" xml:space="preserve">
<style type="text/css">
	.st0{fill:#FFC300;}
	.st1{fill:#FF00A5;}
	.st2{fill:#FF4100;}
	.st3{fill:#00FFE6;}
	.st4{fill:#00E66E;}
	.st5{fill:#6900FF;}
</style>
<path id="Path_123" class="st0" d="M66,132L66,132c-36.5,0-66-29.5-66-66l0,0C0,29.5,29.5,0,66,0l0,0c36.5,0,66,29.5,66,66l0,0
	C132,102.5,102.5,132,66,132z"/>
<rect x="-375" y="-316" class="st1" width="214" height="214"/>
<rect x="-989" y="-316" class="st0" width="214" height="214"/>
<rect x="196" y="-316" class="st2" width="214" height="214"/>
<rect x="-1577" y="-316" class="st3" width="214" height="214"/>
<rect x="794" y="-316" class="st4" width="214" height="214"/>
<rect x="1411" y="-316" class="st5" width="214" height="214"/>
</svg>
