<?xml version="1.0" encoding="utf-8"?>
<!-- Generator: Adobe Illustrator 22.1.0, SVG Export Plug-In . SVG Version: 6.00 Build 0)  -->
<svg version="1.1" id="Layer_1" xmlns="http://www.w3.org/2000/svg" xmlns:xlink="http://www.w3.org/1999/xlink" x="0px" y="0px"
	 viewBox="0 0 4830 2124.1" style="enable-background:new 0 0 4830 2124.1;" xml:space="preserve">
<style type="text/css">
	.st0{fill:#EED882;}
	.st1{fill:#FF00A5;}
	.st2{fill:#6900FF;}
</style>
<g>
	<polygon class="st0" points="720.7,93.3 664.1,93.3 682.1,36.7 738.8,36.7 	"/>
	<polygon class="st1" points="665.7,390.1 626,430.6 598.2,378.1 637.8,337.6 	"/>
	<polygon class="st2" points="1025.2,688.3 974.6,663 1016,620.4 1066.7,645.8 	"/>
	<polygon class="st1" points="1198.9,970.9 1255.6,970.9 1237.5,1027.6 1180.9,1027.6 	"/>
	<polygon class="st1" points="1079,715.3 1118.6,674.8 1146.4,727.3 1106.8,767.8 	"/>
	<polygon class="st1" points="1424.7,303.8 1475.4,329.2 1433.9,371.7 1383.3,346.4 	"/>
	<polygon class="st1" points="708,1411.6 763.5,1400.1 757.3,1459.2 701.8,1470.7 	"/>
	<polygon class="st0" points="1079,1465.2 1109.6,1417.5 1147.5,1463.3 1116.8,1511 	"/>
	<polygon class="st2" points="447.9,828.7 502.6,843.3 470.6,893.4 415.9,878.8 	"/>
	<polygon class="st1" points="220.7,587 165.2,598.4 171.4,539.3 226.9,527.9 	"/>
	<polygon class="st0" points="68.5,950.3 37.9,997.9 0,952.1 30.6,904.5 	"/>
	<polygon class="st0" points="676.4,1079.7 621.7,1065.1 653.7,1015.1 708.4,1029.7 	"/>
	<polygon class="st1" points="1331.3,1588.1 1382.6,1612 1342.4,1655.7 1291.1,1631.8 	"/>
	<polygon class="st0" points="273,2050.6 328.1,2063.6 297.5,2114.6 242.4,2101.5 	"/>
	<polygon class="st1" points="941.9,1954.6 989.7,1924.4 1004.7,1981.9 956.8,2012.1 	"/>
	<polygon class="st2" points="288.4,1299.1 331.8,1335.5 281.7,1367.3 238.2,1331 	"/>
	<polygon class="st2" points="389.6,1623.2 346.2,1586.8 396.3,1555 439.8,1591.3 	"/>
	<polygon class="st0" points="4466.1,1758.2 4506.2,1718.2 4533.5,1771 4493.4,1811 	"/>
	<polygon class="st1" points="4295.1,1509.4 4294.6,1452.8 4351.4,1470.2 4352,1526.8 	"/>
	<polygon class="st1" points="3830.1,1552.8 3883.8,1534.9 3884.6,1594.3 3830.8,1612.2 	"/>
	<polygon class="st0" points="3507.4,1475.8 3467.3,1515.8 3440,1463 3480.1,1423 	"/>
	<polygon class="st2" points="3773,1571.7 3773.6,1628.4 3716.8,1610.9 3716.2,1554.3 	"/>
	<polygon class="st2" points="3819.4,2107.1 3765.7,2125 3764.9,2065.6 3818.7,2047.7 	"/>
	<polygon class="st0" points="3833.8,817.1 3802.6,864.4 3765.2,818.2 3796.4,770.9 	"/>
	<polygon class="st1" points="3533.5,1041.5 3545.5,1096.8 3486.4,1091.2 3474.4,1035.9 	"/>
	<polygon class="st1" points="4429.9,1045.3 4380.8,1073.7 4368.1,1015.6 4417.1,987.3 	"/>
	<polygon class="st1" points="4761.5,1055.6 4792.6,1008.3 4830,1054.5 4798.9,1101.8 	"/>
	<polygon class="st2" points="4612.1,691.1 4600.1,635.7 4659.3,641.3 4671.3,696.7 	"/>
	<polygon class="st1" points="4090.7,1029.4 4139.8,1001 4152.5,1059.1 4103.5,1087.4 	"/>
	<polygon class="st2" points="3268.2,1133 3215,1152.3 3212.5,1093 3265.7,1073.6 	"/>
	<polygon class="st2" points="3689.5,57.7 3641.3,87.4 3626.9,29.7 3675.1,0 	"/>
	<polygon class="st1" points="3284.4,598.4 3271.9,653.7 3220.6,623.6 3233.1,568.4 	"/>
	<polygon class="st2" points="4210,599.9 4153.6,604.9 4166.5,546.9 4222.9,541.9 	"/>
	<polygon class="st1" points="3909.3,442.3 3965.7,437.3 3952.7,495.3 3896.3,500.3 	"/>
</g>
</svg>
