<?xml version="1.0" encoding="utf-8"?>
<!-- Generator: Adobe Illustrator 22.1.0, SVG Export Plug-In . SVG Version: 6.00 Build 0)  -->
<svg version="1.1" id="Layer_1" xmlns="http://www.w3.org/2000/svg" xmlns:xlink="http://www.w3.org/1999/xlink" x="0px" y="0px"
	 viewBox="0 0 66.9 66.5" style="enable-background:new 0 0 66.9 66.5;" xml:space="preserve">
<style type="text/css">
	.st0{fill:#BEB4E6;}
</style>
<g id="Group_267" transform="translate(-1805.518 -39.111)">
	<g id="Path_953">
		<path class="st0" d="M1869.8,90.3c3.5,3.5,3.5,9.2,0,12.7c-1.8,1.8-4.1,2.6-6.4,2.6s-4.6-0.9-6.4-2.6l-17.9-17.9l-17.9,17.9
			c-1.8,1.8-4.1,2.6-6.4,2.6s-4.6-0.9-6.4-2.6c-3.5-3.5-3.5-9.2,0-12.7l17.9-17.9l-17.9-17.9c-3.5-3.5-3.5-9.2,0-12.7
			s9.2-3.5,12.7,0l17.9,17.9l17.9-17.9c3.5-3.5,9.2-3.5,12.7,0s3.5,9.2,0,12.7l-17.9,17.9L1869.8,90.3z"/>
		<line class="st0" x1="1863.4" y1="96.7" x2="1845.5" y2="78.8"/>
		<line class="st0" x1="1832.8" y1="66.1" x2="1814.9" y2="48.2"/>
	</g>
	<g id="Path_954">
		<line class="st0" x1="1863.4" y1="48.2" x2="1845.5" y2="66.1"/>
		<line class="st0" x1="1832.8" y1="78.8" x2="1814.9" y2="96.7"/>
	</g>
</g>
</svg>
