<?xml version="1.0" encoding="utf-8"?>
<!-- Generator: Adobe Illustrator 22.1.0, SVG Export Plug-In . SVG Version: 6.00 Build 0)  -->
<svg version="1.1" id="Layer_1" xmlns="http://www.w3.org/2000/svg" xmlns:xlink="http://www.w3.org/1999/xlink" x="0px" y="0px"
	 viewBox="0 0 158 217" style="enable-background:new 0 0 158 217;" xml:space="preserve">
<style type="text/css">
	.st0{fill:#6900FF;}
	.st1{fill:#CCCCCC;}
	.st2{fill:#00FFE6;}
	.st3{fill:#00F3D9;}
	.st4{fill:#4D4D4D;}
	.st5{fill:#5B30D0;}
</style>
<path class="st0" d="M146.7,185.3c4.3-0.9,5.5-5.2,5.8-5.2c0,0,0.1,0,0.1,0c2-1.1,3.9-27.9,3.7-61.1c0-5.1-0.2-10.1-0.3-14.8
	c0-0.1,0-0.1,0-0.2c-0.3-6.5-6.6-16-8.2-19.2c-3-6.1,0,0.1,0,0c-1.3-15.7-12.4-25.1-13.7-25.7c0,0,0,0,0,0c0,0-3.1-0.1-3.5-0.1H34
	c-0.5,0,4.6,0-11.8,0c0,0,3.5-1.7,3.4-1.7c-1.3,0.5-15.7,11.7-17,27.4c0,0.1-2.2,0.4-2.2,0.5C5.9,90.6,3,97.3,2.7,103.8
	c0,0.1,0,0.1,0,0.2c-0.2,4.7-0.3,9.7-0.3,14.8C2.1,152,4,178.8,6.1,180c0,0,0.1,0,0.1,0c0.3,0,0.2,4,6.1,5.2
	C79.7,199.2,146.7,185.3,146.7,185.3z"/>
<ellipse class="st1" cx="78.6" cy="202.6" rx="52" ry="14.3"/>
<path class="st2" d="M58.6,202.5L58.6,202.5c7.5,0,9.2-4.1,9.2-9.2l6.5-50.6l-28.9-1.3l4.1,52C46,199.7,51.4,203,58.6,202.5z"/>
<path class="st3" d="M69.2,181.8c0,0-4.3-7.5-20.3-8c-1,0-1,0-1,0l-2.5-32.5c0,0,28.9,1.3,28.9,1.3
	C74.2,142.7,69.2,181.8,69.2,181.8z"/>
<g>
	<path class="st2" d="M97.8,202.5L97.8,202.5c-7.5,0-9.2-4.1-9.2-9.2l-6.5-50.6l28.9-1.3l-4.1,52C110.4,199.7,104.9,203,97.8,202.5z
		"/>
	<path class="st3" d="M87.1,181.8c0,0,4.3-7.5,20.3-8c1,0,1,0,1,0l2.5-32.5c0,0-28.9,1.3-28.9,1.3C82.1,142.7,87.1,181.8,87.1,181.8
		z"/>
</g>
<path class="st2" d="M156.5,107.5C154,62.2,120.1,33,78.7,33h0C37.3,33,3.4,62.2,0.9,107.5c0,0.7-0.2,3.4-0.1,4.1
	c2.4,36.1,36.4,59.3,77.8,59.3h0c41.4,0,75.3-23.2,77.8-59.3c0-0.5,0-1,0-1.5C156.5,109.4,156.5,108.5,156.5,107.5z"/>
<g>
	<path class="st4" d="M69.8,90.7c0,3.3-1.7,6.2-5.3,6.2c-3.3,0-4.8-3.4-4.8-6.3c0-2.9,1.9-6,5.1-6C67.9,84.7,69.8,87.5,69.8,90.7z"
		/>
	<path class="st4" d="M97.7,90.7c0,3.3-1.7,6.2-5.3,6.2c-3.3,0-4.8-3.4-4.8-6.3c0-2.9,1.9-6,5.1-6C95.9,84.7,97.8,87.5,97.7,90.7z"
		/>
</g>
<g>
	<path class="st3" d="M56,36.1c0.1,0,0.2-0.1,0.4-0.1C56.4,36,56.3,36,56,36.1z"/>
	<path class="st3" d="M56,36.1c-21.9,6.3-35.3,19.6-43,32C5.4,80.2,1.7,93.5,1,107.6c0,0.8,0,1.4,0.1,2c-0.1,0.3-0.2,0.6-0.2,0.9
		c0,0.3,0,0.7,0,1.1c0,0,0,0,0,0c0,0.7,0.1,1.4,0.2,2.1c0.1,0.6,0.1,1.2,0.2,1.7c0.1,0.4,0.1,0.7,0.2,1.1c0.2,1.7,0.6,3.3,1,4.9
		c0.1,0.5,0.3,1,0.4,1.6c0.1,0.5,0.3,1,0.4,1.5c0.3,1,0.6,2,1,3c0.2,0.4,0.3,0.9,0.5,1.3c0,0.1,0.1,0.2,0.1,0.3
		c0.2,0.5,0.4,0.9,0.6,1.4c0.2,0.5,0.4,1,0.6,1.4c0.3,0.7,0.6,1.3,1,2c0.3,0.6,0.6,1.1,0.9,1.6c0.4,0.6,0.7,1.3,1.1,1.9
		c0.4,0.7,0.8,1.3,1.3,2c0.4,0.6,0.8,1.1,1.2,1.7c0.3,0.5,0.7,0.9,1.1,1.4c0.1,0.1,0.2,0.3,0.3,0.4c0.2,0.3,0.4,0.6,0.7,0.8
		c0.3,0.4,0.7,0.8,1,1.2c0.3,0.4,0.7,0.8,1,1.2c0.7,0.8,1.4,1.5,2.2,2.3c0.7,0.7,1.4,1.4,2.1,2c3.4,3.1,7.5,6.2,12.3,8.9
		c0.8,0.4,1.6,0.9,2.5,1.3c0.1,0.1,0.2,0.1,0.3,0.1c0.9,0.5,1.9,0.9,2.8,1.4c1.1,0.5,2.2,1,3.3,1.5c0,0,0.1,0,0.1,0
		c0.9,0.4,1.9,0.8,2.8,1.1c0.3,0.1,0.6,0.2,0.8,0.3c0.5,0.2,1.1,0.4,1.6,0.6c0.6,0.2,1.2,0.4,1.8,0.6c2.4,0.7,4.8,1.4,7.4,2
		c-2.7-0.8-15-5.8-27.1-29.1c-3.6-7-5.8-16.3-7.1-23.4c0-0.4,0.4-26.8,7.2-43.3C41,42.9,53.6,37,56,36.1z"/>
</g>
<path class="st0" d="M78.8,71.9L78.8,71.9c25.2,0,49.4,3.2,72.3,9.5C139.5,51.3,111.5,33,78.7,33h0C45.9,33,17.9,51.3,6.4,81.4
	C29.3,75.2,53.6,71.9,78.8,71.9z"/>
<g>
	<path class="st5" d="M56,36.2c0.1,0,0.2-0.1,0.4-0.1C56.4,36.1,56.3,36.1,56,36.2z"/>
	<path class="st5" d="M56,36.2c-2.4,0.9-15,6.8-27.2,36.5c-0.5,1.3-1,2.6-1.5,4c-7.1,1.3-14,2.9-20.9,4.8c0.4-0.9,0.7-1.8,1.1-2.7
		c0,0,0-0.1,0-0.1c0.3-0.8,0.7-1.6,1.1-2.3c0.1-0.2,0.2-0.4,0.2-0.5c0.4-0.8,0.8-1.6,1.2-2.4c0.3-0.7,0.7-1.3,1.1-2
		c0.6-1.1,1.2-2.1,1.9-3.2c0.4-0.7,0.9-1.4,1.4-2.1c0.5-0.7,0.9-1.4,1.4-2.1c1.8-2.6,3.9-5.1,6.4-7.7c4.2-4.4,9.3-8.6,15.4-12.2
		c0.7-0.4,1.4-0.8,2.1-1.2c0.7-0.4,1.4-0.8,2.2-1.2c0.6-0.3,1.3-0.6,1.9-0.9c0.2-0.1,0.5-0.2,0.7-0.3c0.6-0.3,1.2-0.5,1.8-0.8
		c0.6-0.3,1.2-0.5,1.8-0.8c1.9-0.7,3.8-1.4,5.8-2.1C54.6,36.6,55.3,36.4,56,36.2z"/>
</g>
<circle class="st0" cx="78.6" cy="28.5" r="23.7"/>
<path class="st5" d="M64.7,16.3C73.2,7.3,82,5.8,84.2,5.5C75.7,3.3,68,5.8,61.4,12.3c-4,3.9-6.6,9.8-6.4,16.2
	c0.1,3.6,1.4,7.5,1.4,7.5C54.4,32.5,60.6,20.7,64.7,16.3z"/>
</svg>
