<?xml version="1.0" encoding="utf-8"?>
<!-- Generator: Adobe Illustrator 22.1.0, SVG Export Plug-In . SVG Version: 6.00 Build 0)  -->
<svg version="1.1" id="Layer_1" xmlns="http://www.w3.org/2000/svg" xmlns:xlink="http://www.w3.org/1999/xlink" x="0px" y="0px"
	 viewBox="0 0 66.9 66.5" style="enable-background:new 0 0 66.9 66.5;" xml:space="preserve">
<style type="text/css">
	.st0{fill:#D7CD4B;}
</style>
<path class="st0" d="M47.9,4.8C44.2,1.9,40.8,0,34.3,0c-6.5,0-12.9,1.4-19,4.2c-0.8,0.2-1.5,0.6-2.1,1c-0.1,0.1-0.2,0.2-0.4,0.3
	c-2,1.6-3.1,4.2-2.6,6.9c0.7,3.9,4.5,6.4,8.5,5.7c0.3,0,0.6-0.1,0.9-0.2c0.1,0,0.1-0.1,0.2-0.1c0.5-0.2,0.9-0.4,1.3-0.6
	c4.5-2,8.6-3,12.1-3c1.8,0,2.4,0.4,3.2,0.9c0.7,0.5,1.3,1.5,1.7,2.9c0.3,1.5-0.2,2.6-0.7,3.4c-1,1.3-2.7,2.9-5.1,4.4
	c-3,1.9-5.1,3.8-6.3,5.8c-1.2,2-1.8,4.4-1.8,7.3v0.8c0,0.1,0,0.3,0,0.4v0.3c0,0,0,0.1,0,0.1c0,0,0,0,0,0.1c0,0.1,0,0.2,0,0.4
	c0,0.1,0,0.2,0,0.3c0.7,3.9,4.6,6.4,8.6,5.7c3.2-0.6,5.5-3,6-5.9c0.1-0.2,0.1-0.4,0.1-0.6c0-1.3,1.2-3.3,1.9-4.2
	c0.8-0.9,1.6-1.4,4.6-3.5c4-2.9,6.1-6.3,6.9-7.9c0.8-1.5,1.4-4.7,1.4-8.2C54,11.6,51.7,7.7,47.9,4.8z"/>
<path class="st0" d="M23.4,59c0-2.4,0.7-4.3,2.1-5.6c1.4-1.3,3.5-2,6.2-2c2.6,0,4.6,0.7,6,2c1.4,1.3,2.1,3.2,2.1,5.6
	c0,2.4-0.7,4.2-2.2,5.5c-1.5,1.3-3.4,2-6,2c-2.6,0-4.6-0.6-6.1-1.9C24.2,63.3,23.4,61.4,23.4,59z"/>
</svg>
