<?xml version="1.0" encoding="utf-8"?>
<!-- Generator: Adobe Illustrator 22.1.0, SVG Export Plug-In . SVG Version: 6.00 Build 0)  -->
<svg version="1.1" id="Layer_1" xmlns="http://www.w3.org/2000/svg" xmlns:xlink="http://www.w3.org/1999/xlink" x="0px" y="0px"
	 viewBox="0 0 690 1000" style="enable-background:new 0 0 690 1000;" xml:space="preserve">
<style type="text/css">
	.st0{fill:#888888;}
	.st1{fill:#6900FF;}
	.st2{fill:#FF00A5;}
	.st3{fill:#4D4D4D;}
</style>
<g>
	<ellipse class="st0" cx="343.9" cy="937" rx="229.3" ry="63"/>
	<path class="st1" d="M0,327.1C0,438,79,533.8,193.6,579.2v126c0,22.2,18,40.1,40.2,40.1s40.2-18,40.2-40.1V601.5
		c22.4,3.8,45.7,5.7,69.4,5.7c19.9,0,39.5-1.4,58.5-4.1v102.1c0,22.2,18,40.1,40.2,40.1l0,0c22.2,0,40.2-18,40.2-40.1V583.3
		C602.7,539.8,686.8,441.4,686.8,327H0V327.1z"/>
	<path class="st2" d="M3.9,257.8C14.2,103.4,175.9-11.6,365.3,0.9s334.5,147.8,324.2,302.2L3.9,257.8z"/>
	<path class="st3" d="M202.3,194.3c0.9-14.1,13.1-24.7,27.2-23.8c14.1,0.9,24.7,13.1,23.8,27.2"/>
	<path class="st3" d="M439.8,210c0.9-14.1,13.1-24.7,27.2-23.8c14.1,0.9,24.7,13.1,23.8,27.2"/>
</g>
</svg>
