<?xml version="1.0" encoding="utf-8"?>
<!-- Generator: Adobe Illustrator 22.1.0, SVG Export Plug-In . SVG Version: 6.00 Build 0)  -->
<svg version="1.1" id="Layer_1" xmlns="http://www.w3.org/2000/svg" xmlns:xlink="http://www.w3.org/1999/xlink" x="0px" y="0px"
	 viewBox="0 0 700 1087" style="enable-background:new 0 0 700 1087;" xml:space="preserve">
<style type="text/css">
	.st0{fill:#848484;}
	.st1{fill:#6900FF;}
	.st2{fill:#FF00A5;}
	.st3{fill:#4D4D4D;}
</style>
<g>
	<ellipse class="st0" cx="340.6" cy="1023.8" rx="229.9" ry="63.2"/>
	<path class="st1" d="M700,383.4c0.7,157.9-155.4,286.6-348.7,287.5C158,671.8,0.7,544.5,0,386.6L700,383.4z"/>
	<path class="st2" d="M5.1,212.3C39.9,58.3,220.9-32,409.5,10.5S722.7,212.4,688,366.4L5.1,212.3z"/>
	<path class="st1" d="M96.7,749.9L96.7,749.9C80.7,734,80.5,708.1,96.5,692l97-97.9c15.9-16.1,41.9-16.2,57.9-0.3l0,0
		c16.1,15.9,16.2,41.8,0.3,57.9l-97,97.9C138.7,765.7,112.8,765.8,96.7,749.9z"/>
	<path class="st1" d="M478.1,808.3L478.1,808.3c-22,5.4-44.2-8.1-49.5-30l-32.8-133.9c-5.4-22,8.1-44.1,30-49.5l0,0
		c22-5.4,44.1,8.1,49.5,30l32.8,133.9C513.5,780.7,500.1,802.9,478.1,808.3z"/>
	<path class="st3" d="M214.8,179.7c3.2-14,17.1-22.9,31.2-19.7c14,3.2,22.9,17.1,19.7,31.2"/>
	<path class="st3" d="M450.9,233c3.2-14,17.1-22.9,31.2-19.7c14,3.2,22.9,17.1,19.7,31.2"/>
</g>
</svg>
