<svg xmlns="http://www.w3.org/2000/svg" viewBox="0 0 247.191 415.961">
  <defs>
    <style>
      .cls-1 {
        fill: #848484;
      }

      .cls-2 {
        fill: #ff5f27;
      }

      .cls-3 {
        fill: lime;
      }

      .cls-4 {
        fill: #4d4d4d;
      }
    </style>
  </defs>
  <g id="monster" transform="translate(-1312.091 -329.039)">
    <ellipse id="Ellipse_188" data-name="Ellipse 188" class="cls-1" cx="82.489" cy="22.684" rx="82.489" ry="22.684" transform="translate(1353.336 699.631)"/>
    <path id="Path_124" data-name="Path 124" class="cls-2" d="M1502,1092.36c11.548-11.549,18.423-26.259,18.423-42.207,0-36.982-36.983-66.953-82.626-66.953s-82.626,29.971-82.626,66.953c0,15.948,6.874,30.658,18.422,42.207C1376.39,1096.414,1503.273,1093.367,1502,1092.36Z" transform="translate(-215.938 -286.942) rotate(-13)"/>
    <path id="Path_125" data-name="Path 125" class="cls-3" d="M1379.335,1258.139h0A14.434,14.434,0,0,1,1364.9,1243.7v-48.668a14.434,14.434,0,0,1,14.436-14.436h0a14.434,14.434,0,0,1,14.436,14.436V1243.7A14.261,14.261,0,0,1,1379.335,1258.139Z" transform="matrix(0.891, 0.454, -0.454, 0.891, 726.815, -1024.314)"/>
    <path id="Path_126" data-name="Path 126" class="cls-3" d="M1433.936,1258.139h0A14.434,14.434,0,0,1,1419.5,1243.7v-48.668a14.434,14.434,0,0,1,14.436-14.436h0a14.434,14.434,0,0,1,14.435,14.436V1243.7A14.434,14.434,0,0,1,1433.936,1258.139Z" transform="translate(37.359 -531.012)"/>
    <path id="Path_127" data-name="Path 127" class="cls-3" d="M1502,1062.769c.55-.825-128.682-.825-128.407,0-35.608,17.6-59.392,49.356-59.392,85.651,0,55.405,55.267,100.224,123.6,100.224,68.191,0,123.6-44.819,123.6-100.224C1561.391,1112.124,1537.607,1080.366,1502,1062.769Z" transform="translate(-2.109 -575.408)"/>
    <path id="Path_132" data-name="Path 132" class="cls-4" d="M70.1,74.2a9.25,9.25,0,1,1,18.5-.1" transform="translate(1301.282 354.192) rotate(-13)"/>
    <path id="Path_133" data-name="Path 133" class="cls-4" d="M156.2,73.8a9.25,9.25,0,1,1,18.5-.1" transform="translate(1266.204 362.29) rotate(-13)"/>
  </g>
</svg>
