<?xml version="1.0" encoding="utf-8"?>
<!-- Generator: Adobe Illustrator 22.1.0, SVG Export Plug-In . SVG Version: 6.00 Build 0)  -->
<svg version="1.1" id="Layer_1" xmlns="http://www.w3.org/2000/svg" xmlns:xlink="http://www.w3.org/1999/xlink" x="0px" y="0px"
	 viewBox="0 0 513 465" style="enable-background:new 0 0 513 465;" xml:space="preserve">
<style type="text/css">
	.st0{fill:#E6FFDC;}
	.st1{fill:#4D4D4D;}
</style>
<g>
	<path class="st0" d="M371.8,17.1H145.3c-6.9,0-13.4,3.7-16.9,9.8L15.1,222.7c-3.5,6-3.5,13.5,0,19.5l113.2,196
		c3.5,6,9.9,9.8,16.9,9.8h226.6c6.9,0,13.4-3.7,16.9-9.8l113.4-196c3.5-6,3.5-13.5,0-19.5L388.8,26.9
		C385.3,20.8,378.8,17.1,371.8,17.1z"/>
	<path class="st1" d="M359.2,459.3h-4.3c-6.2,0-11.4-5.1-11.4-11.4s5.1-11.4,11.4-11.4h4.3c9.2,0,17.7-4.1,23.4-11.2
		c3.9-4.9,11.1-5.7,16-1.8s5.7,11.1,1.8,16C390.4,452.1,375.3,459.3,359.2,459.3z M292.8,459.3h-41.4c-6.2,0-11.4-5.1-11.4-11.4
		s5.1-11.4,11.4-11.4h41.4c6.2,0,11.4,5.1,11.4,11.4S299.2,459.3,292.8,459.3z M189.4,459.3h-31.5c-4.2,0-8.4-0.5-12.5-1.5
		c-6.1-1.5-9.9-7.6-8.4-13.8c1.5-6.1,7.6-9.9,13.8-8.4c2.3,0.6,4.7,0.9,7.1,0.9h31.5c6.2,0,11.4,5.1,11.4,11.4
		S195.7,459.3,189.4,459.3z M107.8,413.9c-3.9,0-7.7-2-9.9-5.7l-20.7-35.8c-3.1-5.5-1.3-12.4,4.2-15.5s12.4-1.3,15.5,4.2l20.7,35.8
		c3.1,5.5,1.3,12.4-4.2,15.5C111.7,413.4,109.7,413.9,107.8,413.9z M422.9,390.3c-2,0-3.9-0.5-5.7-1.6c-5.5-3.1-7.3-10.1-4.2-15.5
		l20.7-35.8c3.1-5.5,10.1-7.3,15.5-4.2c5.5,3.1,7.3,10.1,4.2,15.5l-20.7,35.9C430.7,388.3,426.9,390.3,422.9,390.3z M56,324.4
		c-3.9,0-7.8-2-9.9-5.7l-20.7-35.8c-3.1-5.5-1.3-12.4,4.2-15.5s12.4-1.3,15.5,4.2l20.7,35.8c3.1,5.5,1.3,12.4-4.2,15.5
		C59.9,323.9,57.9,324.4,56,324.4z M474.6,300.9c-2,0-3.9-0.5-5.7-1.6c-5.5-3.1-7.3-10.1-4.2-15.5l20.7-35.8
		c3.1-5.5,10.1-7.3,15.5-4.2c5.5,3.1,7.3,10.1,4.2,15.5l-20.7,35.9C482.4,298.8,478.6,300.9,474.6,300.9z M17.8,231.6
		c-1.1,0-2.2-0.2-3.4-0.5c-5.9-1.9-9.4-8.3-7.5-14.2c1.2-3.7,2.7-7.3,4.7-10.7l16.1-27.9c3.1-5.5,10.1-7.3,15.5-4.2
		c5.5,3.1,7.3,10.1,4.2,15.5l-16.1,27.9c-1.1,2-2,4-2.6,6C27,228.5,22.5,231.6,17.8,231.6z M486.7,207.6c-3.9,0-7.8-2-9.9-5.7
		l-20.7-35.8c-3.1-5.5-1.3-12.4,4.2-15.5s12.4-1.3,15.5,4.2l20.7,35.8c3.1,5.5,1.3,12.4-4.2,15.5
		C490.5,207.1,488.6,207.6,486.7,207.6z M68.5,141.7c-2,0-3.9-0.5-5.7-1.6c-5.5-3.1-7.3-10.1-4.2-15.5l20.7-35.8
		c3.1-5.5,10.1-7.3,15.5-4.2c5.5,3.1,7.3,10.1,4.2,15.5l-20.7,35.8C76.3,139.6,72.4,141.7,68.5,141.7z M434.9,118.2
		c-3.9,0-7.7-2-9.9-5.7l-20.7-35.8c-3.1-5.5-1.3-12.4,4.2-15.5s12.4-1.3,15.5,4.2l20.7,35.8c3.1,5.5,1.3,12.4-4.2,15.5
		C438.8,117.7,436.9,118.2,434.9,118.2z M120.3,52.2c-2,0-3.9-0.5-5.7-1.6c-5.5-3.1-7.3-10.1-4.2-15.5l1.8-3.1
		c8.1-14,22.5-23.7,38.6-25.8c6.2-0.9,12,3.5,12.8,9.8c0.9,6.2-3.5,12-9.8,12.8c-9.2,1.3-17.4,6.7-21.9,14.7l-1.8,3.1
		C128.1,50.2,124.3,52.2,120.3,52.2z M378.3,33c-1.8,0-3.5-0.4-5.2-1.3c-4.2-2.1-9-3.3-13.8-3.3H318c-6.2,0-11.4-5.1-11.4-11.4
		s5.1-11.3,11.3-11.3h41.4l0,0c8.4,0,16.8,2,24.2,5.9c5.6,2.9,7.8,9.8,4.9,15.3C386.4,30.8,382.4,33,378.3,33z M255.8,28.5h-41.4
		c-6.2,0-11.4-5.1-11.4-11.4s5.2-11.3,11.4-11.3h41.4c6.2,0,11.4,5.1,11.4,11.4S262,28.5,255.8,28.5z"/>
</g>
</svg>
