<?xml version="1.0" encoding="utf-8"?>
<!-- Generator: Adobe Illustrator 22.1.0, SVG Export Plug-In . SVG Version: 6.00 Build 0)  -->
<svg version="1.1" id="Layer_1" xmlns="http://www.w3.org/2000/svg" xmlns:xlink="http://www.w3.org/1999/xlink" x="0px" y="0px"
	 viewBox="0 0 513 465" style="enable-background:new 0 0 513 465;" xml:space="preserve">
<style type="text/css">
	.st0{fill:#4D4D4D;}
</style>
<g>
	<path class="st0" d="M357.4,455.4h-4.2c-6.1,0-11.2-5-11.2-11.2s5-11.2,11.2-11.2h4.2c9,0,17.4-4,23-11c3.8-4.8,10.9-5.6,15.7-1.8
		c4.8,3.8,5.6,10.9,1.8,15.7C388.1,448.3,373.3,455.4,357.4,455.4z M292.2,455.4h-40.7c-6.1,0-11.2-5-11.2-11.2s5-11.2,11.2-11.2
		h40.7c6.1,0,11.2,5,11.2,11.2S298.5,455.4,292.2,455.4z M190.6,455.4h-31c-4.1,0-8.3-0.5-12.3-1.5c-6-1.5-9.7-7.5-8.3-13.6
		c1.5-6,7.5-9.7,13.6-8.3c2.3,0.6,4.6,0.9,7,0.9h31c6.1,0,11.2,5,11.2,11.2S196.7,455.4,190.6,455.4z M110.4,410.8
		c-3.8,0-7.6-2-9.7-5.6L80.3,370c-3-5.4-1.3-12.2,4.1-15.2c5.4-3,12.2-1.3,15.2,4.1l20.3,35.2c3,5.4,1.3,12.2-4.1,15.2
		C114.2,410.3,112.2,410.8,110.4,410.8z M420,387.6c-2,0-3.8-0.5-5.6-1.6c-5.4-3-7.2-9.9-4.1-15.2l20.3-35.2c3-5.4,9.9-7.2,15.2-4.1
		c5.4,3,7.2,9.9,4.1,15.2L429.7,382C427.7,385.6,424,387.6,420,387.6z M59.5,322.8c-3.8,0-7.7-2-9.7-5.6L29.4,282
		c-3-5.4-1.3-12.2,4.1-15.2c5.4-3,12.2-1.3,15.2,4.1l20.3,35.2c3,5.4,1.3,12.2-4.1,15.2C63.3,322.3,61.3,322.8,59.5,322.8z
		 M470.9,299.7c-2,0-3.8-0.5-5.6-1.6c-5.4-3-7.2-9.9-4.1-15.2l20.3-35.2c3-5.4,9.9-7.2,15.2-4.1c5.4,3,7.2,9.9,4.1,15.2l-20.3,35.3
		C478.5,297.7,474.8,299.7,470.9,299.7z M21.9,231.6c-1.1,0-2.2-0.2-3.3-0.5c-5.8-1.9-9.2-8.2-7.4-14c1.2-3.6,2.7-7.2,4.6-10.5
		l15.8-27.4c3-5.4,9.9-7.2,15.2-4.1c5.4,3,7.2,9.9,4.1,15.2l-15.8,27.4c-1.1,2-2,3.9-2.6,5.9C30.9,228.6,26.5,231.6,21.9,231.6z
		 M482.7,208c-3.8,0-7.7-2-9.7-5.6l-20.3-35.2c-3-5.4-1.3-12.2,4.1-15.2c5.4-3,12.2-1.3,15.2,4.1l20.3,35.2c3,5.4,1.3,12.2-4.1,15.2
		C486.5,207.5,484.6,208,482.7,208z M71.7,143.3c-2,0-3.8-0.5-5.6-1.6c-5.4-3-7.2-9.9-4.1-15.2l20.3-35.2c3-5.4,9.9-7.2,15.2-4.1
		c5.4,3,7.2,9.9,4.1,15.2l-20.3,35.2C79.4,141.2,75.6,143.3,71.7,143.3z M431.8,120.2c-3.8,0-7.6-2-9.7-5.6l-20.3-35.2
		c-3-5.4-1.3-12.2,4.1-15.2c5.4-3,12.2-1.3,15.2,4.1l20.3,35.2c3,5.4,1.3,12.2-4.1,15.2C435.7,119.7,433.8,120.2,431.8,120.2z
		 M122.6,55.3c-2,0-3.8-0.5-5.6-1.6c-5.4-3-7.2-9.9-4.1-15.2l1.8-3c8-13.8,22.1-23.3,37.9-25.4c6.1-0.9,11.8,3.4,12.6,9.6
		c0.9,6.1-3.4,11.8-9.6,12.6c-9,1.3-17.1,6.6-21.5,14.4l-1.8,3C130.3,53.3,126.6,55.3,122.6,55.3z M376.2,36.4
		c-1.8,0-3.4-0.4-5.1-1.3c-4.1-2.1-8.8-3.2-13.6-3.2h-40.6c-6.1,0-11.2-5-11.2-11.2s5-11.1,11.1-11.1h40.7l0,0
		c8.3,0,16.5,2,23.8,5.8c5.5,2.9,7.7,9.6,4.8,15C384.2,34.3,380.2,36.4,376.2,36.4z M255.8,32h-40.7c-6.1,0-11.2-5-11.2-11.2
		S209,9.7,215.1,9.7h40.7c6.1,0,11.2,5,11.2,11.2S261.9,32,255.8,32z"/>
</g>
</svg>
