<?xml version="1.0" encoding="utf-8"?>
<!-- Generator: Adobe Illustrator 22.1.0, SVG Export Plug-In . SVG Version: 6.00 Build 0)  -->
<svg version="1.1" id="Layer_1" xmlns="http://www.w3.org/2000/svg" xmlns:xlink="http://www.w3.org/1999/xlink" x="0px" y="0px"
	 viewBox="0 0 487 427" style="enable-background:new 0 0 487 427;" xml:space="preserve">
<style type="text/css">
	.st0{clip-path:url(#SVGID_2_);}
	.st1{fill:#F2F2F2;}
	.st2{fill:#4D4D4D;}
</style>
<g>
	<defs>
		<path id="SVGID_1_" d="M355.3,0H131.7c-7.1,0-13.7,3.8-17.3,10L2.7,203.5c-3.6,6.2-3.6,13.8,0,20L114.4,417
			c3.6,6.2,10.2,10,17.3,10h223.5c7.1,0,13.7-3.8,17.3-10l111.7-193.5c3.6-6.2,3.6-13.8,0-20L372.6,10C369,3.8,362.4,0,355.3,0z"/>
	</defs>
	<clipPath id="SVGID_2_">
		<use xlink:href="#SVGID_1_"  style="overflow:visible;"/>
	</clipPath>
	<g class="st0">
		<rect x="-44.1" y="-78" class="st1" width="544.5" height="544.5"/>
		<g>
			<g id="XMLID_8_">
				<g>
					
						<rect x="416.5" y="-509" transform="matrix(0.7071 -0.7071 0.7071 0.7071 134.6812 305.8883)" class="st2" width="40.1" height="998.8"/>
				</g>
			</g>
			<g id="XMLID_7_">
				<g>
					
						<rect x="360.2" y="-450.6" transform="matrix(0.7071 -0.7071 0.7071 0.7071 76.8856 283.193)" class="st2" width="40.1" height="998.8"/>
				</g>
			</g>
			<g id="XMLID_6_">
				<g>
					
						<rect x="303.9" y="-392.2" transform="matrix(0.7071 -0.7071 0.7071 0.7071 19.0899 260.4977)" class="st2" width="40.1" height="998.8"/>
				</g>
			</g>
			<g id="XMLID_5_">
				<g>
					
						<rect x="247.7" y="-333.8" transform="matrix(0.7071 -0.7071 0.7071 0.7071 -38.6351 237.8318)" class="st2" width="40.1" height="998.8"/>
				</g>
			</g>
			<g id="XMLID_4_">
				<g>
					
						<rect x="191.4" y="-275.4" transform="matrix(0.7071 -0.7071 0.7071 0.7071 -96.4307 215.1365)" class="st2" width="40.1" height="998.8"/>
				</g>
			</g>
			<g id="XMLID_3_">
				<g>
					
						<rect x="135.1" y="-217" transform="matrix(0.7071 -0.7071 0.7071 0.7071 -154.2264 192.4413)" class="st2" width="40.1" height="998.8"/>
				</g>
			</g>
			<g id="XMLID_2_">
				<g>
					
						<rect x="78.8" y="-158.6" transform="matrix(0.7071 -0.7071 0.7071 0.7071 -212.022 169.746)" class="st2" width="40.1" height="998.8"/>
				</g>
			</g>
			<g id="XMLID_1_">
				<g>
					
						<rect x="22.6" y="-100.2" transform="matrix(0.7071 -0.7071 0.7071 0.7071 -269.7469 147.08)" class="st2" width="40.1" height="998.8"/>
				</g>
			</g>
		</g>
	</g>
</g>
</svg>
