<?xml version="1.0" encoding="utf-8"?>
<!-- Generator: Adobe Illustrator 22.1.0, SVG Export Plug-In . SVG Version: 6.00 Build 0)  -->
<svg version="1.1" id="Layer_1" xmlns="http://www.w3.org/2000/svg" xmlns:xlink="http://www.w3.org/1999/xlink" x="0px" y="0px"
	 viewBox="0 0 487 427" style="enable-background:new 0 0 487 427;" xml:space="preserve">
<style type="text/css">
	.st0{fill:#FFC300;}
	.st1{fill:#FF00A5;}
	.st2{fill:#FF4100;}
	.st3{fill:#00E66E;}
	.st4{fill:#41FF69;}
	.st5{fill:#6900FF;}
</style>
<path class="st0" d="M355.3,0H131.7c-7.1,0-13.7,3.8-17.3,10L2.7,203.5c-3.6,6.2-3.6,13.8,0,20L114.4,417c3.6,6.2,10.2,10,17.3,10
	h223.5c7.1,0,13.7-3.8,17.3-10l111.7-193.5c3.6-6.2,3.6-13.8,0-20L372.6,10C369,3.8,362.4,0,355.3,0z"/>
<rect x="63" y="-885" class="st1" width="214" height="214"/>
<rect x="-551" y="-885" class="st0" width="214" height="214"/>
<rect x="634" y="-885" class="st2" width="214" height="214"/>
<rect x="1232" y="-885" class="st3" width="214" height="214"/>
<rect x="1472" y="-885" class="st4" width="214" height="214"/>
<rect x="1849" y="-885" class="st5" width="214" height="214"/>
</svg>
