<?xml version="1.0" encoding="utf-8"?>
<!-- Generator: Adobe Illustrator 22.1.0, SVG Export Plug-In . SVG Version: 6.00 Build 0)  -->
<svg version="1.1" id="Layer_1" xmlns="http://www.w3.org/2000/svg" xmlns:xlink="http://www.w3.org/1999/xlink" x="0px" y="0px"
	 viewBox="0 0 1470 1295" style="enable-background:new 0 0 1470 1295;" xml:space="preserve">
<style type="text/css">
	.st0{fill:#6900FF;}
	.st1{fill:#FFFFFF;}
</style>
<g>
	<path class="st0" d="M1062.6,0H407.4c-28.5,0-54.8,15.2-69.1,39.9L10.7,607.6c-14.3,24.7-14.3,55.1,0,79.8l327.6,567.7
		c14.3,24.7,40.6,39.9,69.1,39.9h655.2c28.5,0,54.8-15.2,69.1-39.9l327.6-567.7c14.3-24.7,14.3-55.1,0-79.8L1131.7,39.9
		C1117.5,15.2,1091.1,0,1062.6,0z"/>
</g>
<path class="st1" d="M825.4,258.1c-0.2,17.6-8.9,33.4-28.5,33.2c-17.8-0.2-25.6-18.4-25.4-33.8s10.4-32.1,27.4-31.9
	C815.7,225.7,825.7,240.9,825.4,258.1z"/>
<path class="st1" d="M686.5,256.3c-0.2,17.6-8.9,33.4-28.5,33.2c-17.8-0.2-25.6-18.4-25.4-33.8s10.4-32.1,27.4-31.9
	C676.7,224,686.7,239.2,686.5,256.3z"/>
</svg>
