<?xml version="1.0" encoding="utf-8"?>
<!-- Generator: Adobe Illustrator 22.1.0, SVG Export Plug-In . SVG Version: 6.00 Build 0)  -->
<svg version="1.1" id="Layer_1" xmlns="http://www.w3.org/2000/svg" xmlns:xlink="http://www.w3.org/1999/xlink" x="0px" y="0px"
	 viewBox="0 0 382 338" style="enable-background:new 0 0 382 338;" xml:space="preserve">
<style type="text/css">
	.st0{fill:#00FFE6;}
	.st1{fill:#FF00A5;}
	.st2{fill:#FFC300;}
	.st3{fill:#FF4100;}
	.st4{fill:#6900FF;}
</style>
<path id="Path_84" class="st0" d="M191,338L191,338c-93.3,0-169-75.6-169-169l0,0l0,0C22,75.7,97.6,0,191,0l0,0l0,0
	c93.3,0,169,75.6,169,169l0,0l0,0C360,262.3,284.4,338,191,338L191,338z"/>
<rect x="-207" y="-504.5" class="st1" width="214" height="214"/>
<rect x="-821" y="-504.5" class="st2" width="214" height="214"/>
<rect x="364" y="-504.5" class="st3" width="214" height="214"/>
<rect x="-1409" y="-504.5" class="st0" width="214" height="214"/>
<rect x="759.2" y="-504.5" class="st4" width="214" height="214"/>
<path class="st1" d="M278.8,2H103.3c-5.6,0-10.7,3-13.6,7.8L2.1,161.2c-2.8,4.8-2.8,10.8,0,15.6l87.6,151.4c2.8,4.8,8,7.8,13.6,7.8
	h175.3c5.6,0,10.7-3,13.6-7.8l87.6-151.4c2.8-4.8,2.8-10.8,0-15.6L292.3,9.8C289.5,5,284.3,2,278.8,2z"/>
</svg>
