<?xml version="1.0" encoding="utf-8"?>
<!-- Generator: Adobe Illustrator 22.1.0, SVG Export Plug-In . SVG Version: 6.00 Build 0)  -->
<svg version="1.1" id="Layer_1" xmlns="http://www.w3.org/2000/svg" xmlns:xlink="http://www.w3.org/1999/xlink" x="0px" y="0px"
	 viewBox="0 0 240 360" style="enable-background:new 0 0 240 360;" xml:space="preserve">
<style type="text/css">
	.st0{fill:#FFC300;}
	.st1{fill:#FF4100;}
</style>
<path id="Rectangle_323" class="st0" d="M240,10v340c0,5.5-4.5,10-10,10H10c-5.5,0-10-4.5-10-10V10C0,4.5,4.5,0,10,0h220
	C235.5,0,240,4.5,240,10z"/>
<path id="Rectangle_324" class="st1" d="M202,66.3v18.4c0,0.7-0.6,1.3-1.3,1.3h-18.4c-0.7,0-1.3-0.6-1.3-1.3V66.3
	c0-0.7,0.6-1.3,1.3-1.3h18.4C201.4,65,202,65.6,202,66.3z"/>
<path id="Rectangle_324_1_" class="st1" d="M202,105.3v18.4c0,0.7-0.6,1.3-1.3,1.3h-18.4c-0.7,0-1.3-0.6-1.3-1.3v-18.4
	c0-0.7,0.6-1.3,1.3-1.3h18.4C201.4,104,202,104.6,202,105.3z"/>
<path id="Rectangle_324_2_" class="st1" d="M202,144.3v18.4c0,0.7-0.6,1.3-1.3,1.3h-18.4c-0.7,0-1.3-0.6-1.3-1.3v-18.4
	c0-0.7,0.6-1.3,1.3-1.3h18.4C201.4,143,202,143.6,202,144.3z"/>
<path id="Rectangle_324_3_" class="st1" d="M202,183.3v18.4c0,0.7-0.6,1.3-1.3,1.3h-18.4c-0.7,0-1.3-0.6-1.3-1.3v-18.4
	c0-0.7,0.6-1.3,1.3-1.3h18.4C201.4,182,202,182.6,202,183.3z"/>
<path id="Rectangle_324_4_" class="st1" d="M202,222.3v18.4c0,0.7-0.6,1.3-1.3,1.3h-18.4c-0.7,0-1.3-0.6-1.3-1.3v-18.4
	c0-0.7,0.6-1.3,1.3-1.3h18.4C201.4,221,202,221.6,202,222.3z"/>
</svg>
