<?xml version="1.0" encoding="utf-8"?>
<!-- Generator: Adobe Illustrator 22.1.0, SVG Export Plug-In . SVG Version: 6.00 Build 0)  -->
<svg version="1.1" id="Layer_1" xmlns="http://www.w3.org/2000/svg" xmlns:xlink="http://www.w3.org/1999/xlink" x="0px" y="0px"
	 viewBox="0 0 220 100" style="enable-background:new 0 0 220 100;" xml:space="preserve">
<style type="text/css">
	.st0{fill:#6900FF;}
	.st1{fill:#FF4100;}
</style>
<path id="Rectangle_327" class="st0" d="M210,10v80c0,5.5-3.7,10-8.3,10H18.3c-4.6,0-8.3-4.5-8.3-10V10c0-5.5,3.7-10,8.3-10h183.3
	C206.3,0,210,4.5,210,10z"/>
<path id="Rectangle_324" class="st1" d="M64.5,15v70c0,2.8-0.4,5-0.8,5H52.3c-0.4,0-0.8-2.2-0.8-5V15c0-2.8,0.4-5,0.8-5h11.4
	C64.1,10,64.5,12.2,64.5,15z"/>
<path id="Rectangle_324_1_" class="st1" d="M90.5,15v70c0,2.8-0.4,5-0.8,5H78.3c-0.4,0-0.8-2.2-0.8-5V15c0-2.8,0.4-5,0.8-5h11.4
	C90.1,10,90.5,12.2,90.5,15z"/>
<path id="Rectangle_324_2_" class="st1" d="M116.5,15v70c0,2.8-0.4,5-0.8,5h-11.4c-0.4,0-0.8-2.2-0.8-5V15c0-2.8,0.4-5,0.8-5h11.4
	C116.1,10,116.5,12.2,116.5,15z"/>
<path id="Rectangle_324_3_" class="st1" d="M142.5,15v70c0,2.8-0.4,5-0.8,5h-11.4c-0.4,0-0.8-2.2-0.8-5V15c0-2.8,0.4-5,0.8-5h11.4
	C142.1,10,142.5,12.2,142.5,15z"/>
<path id="Rectangle_324_4_" class="st1" d="M168.5,15v70c0,2.8-0.4,5-0.8,5h-11.4c-0.4,0-0.8-2.2-0.8-5V15c0-2.8,0.4-5,0.8-5h11.4
	C168.1,10,168.5,12.2,168.5,15z"/>
</svg>
