<?xml version="1.0" encoding="utf-8"?>
<!-- Generator: Adobe Illustrator 22.1.0, SVG Export Plug-In . SVG Version: 6.00 Build 0)  -->
<svg version="1.1" id="Layer_1" xmlns="http://www.w3.org/2000/svg" xmlns:xlink="http://www.w3.org/1999/xlink" x="0px" y="0px"
	 viewBox="0 0 1105 1105" style="enable-background:new 0 0 1105 1105;" xml:space="preserve">
<style type="text/css">
	.st0{fill:#00FFE6;}
	.st1{fill:#4D4D4D;}
</style>
<g>
	<path class="st0" d="M1055,1105H50c-27.6,0-50-22.4-50-50V50C0,22.4,22.4,0,50,0h1005c27.6,0,50,22.4,50,50v1005
		C1105,1082.6,1082.6,1105,1055,1105z"/>
</g>
<path class="st1" d="M648.4,239.9c-0.2,17.6-8.9,33.4-28.5,33.2c-17.8-0.2-25.6-18.4-25.4-33.8s10.4-32.1,27.4-31.9
	C638.7,207.5,648.7,222.7,648.4,239.9z"/>
<path class="st1" d="M509.5,238.1c-0.2,17.6-8.9,33.4-28.5,33.2c-17.8-0.2-25.6-18.4-25.4-33.8c0.2-15.4,10.4-32.1,27.4-31.9
	C499.7,205.8,509.7,221,509.5,238.1z"/>
</svg>
