<?xml version="1.0" encoding="utf-8"?>
<!-- Generator: Adobe Illustrator 22.1.0, SVG Export Plug-In . SVG Version: 6.00 Build 0)  -->
<svg version="1.1" id="Layer_1" xmlns="http://www.w3.org/2000/svg" xmlns:xlink="http://www.w3.org/1999/xlink" x="0px" y="0px"
	 viewBox="0 0 452 452.9" style="enable-background:new 0 0 452 452.9;" xml:space="preserve">
<style type="text/css">
	.st0{fill:#E6FFDC;}
	.st1{fill:#4D4D4D;}
</style>
<g>
	<path class="st0" d="M428.6,440.3H23.4c-6.5,0-11.7-5.2-11.7-11.7V23.4c0-6.5,5.2-11.7,11.7-11.7h405.2c6.5,0,11.7,5.2,11.7,11.7
		v405.2C440.3,435.1,435.1,440.3,428.6,440.3z"/>
	<path class="st1" d="M397.9,452h-42.4c-5,0-9.6-3.1-11.1-7.9c-2.5-8,3.4-15.4,11.1-15.4h42.4c0.3,0,0.5,0,0.8,0
		c1.4,0.1,2.8,0,4.2-0.4c0.2-0.1,0.5-0.1,0.7-0.2c10.1-1.9,18.9-9,22.8-18.6c1.9-4.5,6.2-7.7,11.1-7.4c8.6,0.5,13.4,8.9,10.5,16.1
		c-7,17.2-22,29.4-40.2,32.8c-1,0.2-2.1,0.2-3.1,0.2c-1.3-0.1-2.6,0-3.8,0.4C400,451.9,398.9,452,397.9,452z M291.8,452h-42.4
		c-5,0-9.6-3.1-11.1-7.9c-2.5-8,3.4-15.4,11.1-15.4h42.4c5,0,9.6,3.1,11.1,7.9C305.4,444.6,299.4,452,291.8,452z M185.7,452h-42.4
		c-5,0-9.6-3.1-11.1-7.9c-2.5-8,3.4-15.4,11.1-15.4h42.4c5,0,9.6,3.1,11.1,7.9C199.3,444.6,193.3,452,185.7,452z M79.6,452H54.1
		c-7.3,0-14.4-1.4-21.1-4.3c-5.9-2.5-8.7-9.4-6.2-15.3s9.4-8.7,15.3-6.2c3.8,1.6,7.8,2.4,12,2.4h25.5c7.7,0,13.6,7.4,11.1,15.4
		C89.2,448.9,84.6,452,79.6,452z M7.9,395c-4.7-1.5-7.9-6-7.9-11.1v-42.4c0-5,3.2-9.6,7.9-11.1c8-2.5,15.4,3.4,15.4,11.1v42.4
		C23.3,391.6,16,397.5,7.9,395z M436.6,361.7c-4.8-1.5-7.9-6.1-7.9-11.1v-42.4c0-5,3.2-9.6,7.9-11.1c8-2.5,15.4,3.4,15.4,11.1v42.4
		C452,358.2,444.6,364.2,436.6,361.7z M7.9,288.9c-4.8-1.5-7.9-6.1-7.9-11.1v-42.4c0-5,3.2-9.6,7.9-11.1c8-2.5,15.4,3.4,15.4,11.1
		v42.4C23.3,285.5,16,291.4,7.9,288.9z M436.6,255.6c-4.8-1.5-7.9-6.1-7.9-11.1v-42.4c0-5,3.2-9.6,7.9-11.1
		c8-2.5,15.4,3.4,15.4,11.1v42.4C452,252.1,444.6,258.1,436.6,255.6z M7.9,182.8c-4.8-1.5-7.9-6.1-7.9-11.1v-42.4
		c0-5,3.2-9.6,7.9-11.1c8-2.5,15.4,3.4,15.4,11.1v42.4C23.3,179.4,16,185.3,7.9,182.8z M436.6,149.5c-4.8-1.5-7.9-6.1-7.9-11.1V96
		c0-5,3.2-9.6,7.9-11.1c8-2.5,15.4,3.4,15.4,11.1v42.4C452,146,444.6,152,436.6,149.5z M7.9,76.7C3.2,75.2,0,70.6,0,65.6V54.1
		c0-13.3,4.9-26.1,13.7-36c4.3-4.8,11.7-5.2,16.5-0.9s5.2,11.7,0.9,16.5c-5,5.6-7.8,12.9-7.8,20.5v11.5C23.3,73.3,16,79.2,7.9,76.7z
		 M434.9,44.9c-4.1,0-8-2.1-10.2-5.9c-5.2-9.1-14.4-14.9-24.9-15.6c-5-0.3-9.4-3.5-10.7-8.3C386.8,6.8,393.2-0.4,401,0
		c18.5,1,34.9,11.3,44,27.4c3.2,5.6,1.2,12.7-4.4,15.9C438.8,44.4,436.8,44.9,434.9,44.9z M336.7,23.3h-42.4c-5,0-9.6-3.1-11.1-7.9
		c-2.5-8,3.4-15.4,11.1-15.4h42.4c5,0,9.6,3.1,11.1,7.9C350.2,16,344.3,23.3,336.7,23.3z M230.5,23.3h-42.4c-5,0-9.6-3.1-11.1-7.9
		c-2.5-8,3.4-15.4,11.1-15.4h42.4c5,0,9.6,3.1,11.1,7.9C244.1,16,238.2,23.3,230.5,23.3z M124.4,23.3H82c-5,0-9.6-3.1-11.1-7.9
		C68.4,7.4,74.3,0,82,0h42.4c5,0,9.6,3.1,11.1,7.9C138,16,132.1,23.3,124.4,23.3z"/>
</g>
</svg>
