<?xml version="1.0" encoding="utf-8"?>
<!-- Generator: Adobe Illustrator 22.1.0, SVG Export Plug-In . SVG Version: 6.00 Build 0)  -->
<svg version="1.1" id="Layer_1" xmlns="http://www.w3.org/2000/svg" xmlns:xlink="http://www.w3.org/1999/xlink" x="0px" y="0px"
	 viewBox="0 0 452 452.9" style="enable-background:new 0 0 452 452.9;" xml:space="preserve">
<style type="text/css">
	.st0{fill:#4D4D4D;}
	.st1{fill:none;stroke:#4D4D4D;stroke-width:21;stroke-linecap:round;stroke-miterlimit:10;stroke-dasharray:42,60,42,60;}
</style>
<g>
	<path class="st0" d="M397.9-78.2h-42.4c-5,0-9.6-3.1-11.1-7.9c-2.5-8,3.4-15.4,11.1-15.4h42.4c0.3,0,0.5,0,0.8,0
		c1.4,0.1,2.8,0,4.2-0.4c0.2-0.1,0.5-0.1,0.7-0.2c10.1-1.9,18.9-9,22.8-18.6c1.9-4.5,6.2-7.7,11.1-7.4c8.6,0.5,13.4,8.9,10.5,16.1
		c-7,17.2-22,29.4-40.2,32.8c-1,0.2-2.1,0.2-3.1,0.2c-1.3-0.1-2.6,0-3.8,0.4C400-78.3,398.9-78.2,397.9-78.2z M291.8-78.2h-42.4
		c-5,0-9.6-3.1-11.1-7.9c-2.5-8,3.4-15.4,11.1-15.4h42.4c5,0,9.6,3.1,11.1,7.9C305.4-85.6,299.4-78.2,291.8-78.2z M185.7-78.2h-42.4
		c-5,0-9.6-3.1-11.1-7.9c-2.5-8,3.4-15.4,11.1-15.4h42.4c5,0,9.6,3.1,11.1,7.9C199.3-85.6,193.3-78.2,185.7-78.2z M79.6-78.2H54.1
		c-7.3,0-14.4-1.4-21.1-4.3c-5.9-2.5-8.7-9.4-6.2-15.3s9.4-8.7,15.3-6.2c3.8,1.6,7.8,2.4,12,2.4h25.5c7.7,0,13.6,7.4,11.1,15.4
		C89.2-81.3,84.6-78.2,79.6-78.2z M7.9-135.2c-4.7-1.5-7.9-6-7.9-11.1v-42.4c0-5,3.2-9.6,7.9-11.1c8-2.5,15.4,3.4,15.4,11.1v42.4
		C23.3-138.6,16-132.7,7.9-135.2z M436.6-168.5c-4.8-1.5-7.9-6.1-7.9-11.1V-222c0-5,3.2-9.6,7.9-11.1c8-2.5,15.4,3.4,15.4,11.1v42.4
		C452-172,444.6-166,436.6-168.5z M7.9-241.3c-4.8-1.5-7.9-6.1-7.9-11.1v-42.4c0-5,3.2-9.6,7.9-11.1c8-2.5,15.4,3.4,15.4,11.1v42.4
		C23.3-244.7,16-238.8,7.9-241.3z M436.6-274.6c-4.8-1.5-7.9-6.1-7.9-11.1v-42.4c0-5,3.2-9.6,7.9-11.1c8-2.5,15.4,3.4,15.4,11.1
		v42.4C452-278.1,444.6-272.1,436.6-274.6z M7.9-347.4c-4.8-1.5-7.9-6.1-7.9-11.1v-42.4c0-5,3.2-9.6,7.9-11.1
		c8-2.5,15.4,3.4,15.4,11.1v42.4C23.3-350.8,16-344.9,7.9-347.4z M436.6-380.7c-4.8-1.5-7.9-6.1-7.9-11.1v-42.4
		c0-5,3.2-9.6,7.9-11.1c8-2.5,15.4,3.4,15.4,11.1v42.4C452-384.2,444.6-378.2,436.6-380.7z M7.9-453.5C3.2-455,0-459.6,0-464.6
		v-11.5c0-13.3,4.9-26.1,13.7-36c4.3-4.8,11.7-5.2,16.5-0.9c4.8,4.3,5.2,11.7,0.9,16.5c-5,5.6-7.8,12.9-7.8,20.5v11.5
		C23.3-456.9,16-451,7.9-453.5z M434.9-485.3c-4.1,0-8-2.1-10.2-5.9c-5.2-9.1-14.4-14.9-24.9-15.6c-5-0.3-9.4-3.5-10.7-8.3
		c-2.3-8.3,4.1-15.5,11.9-15.1c18.5,1,34.9,11.3,44,27.4c3.2,5.6,1.2,12.7-4.4,15.9C438.8-485.8,436.8-485.3,434.9-485.3z
		 M336.7-506.9h-42.4c-5,0-9.6-3.1-11.1-7.9c-2.5-8,3.4-15.4,11.1-15.4h42.4c5,0,9.6,3.1,11.1,7.9
		C350.2-514.2,344.3-506.9,336.7-506.9z M230.5-506.9h-42.4c-5,0-9.6-3.1-11.1-7.9c-2.5-8,3.4-15.4,11.1-15.4h42.4
		c5,0,9.6,3.1,11.1,7.9C244.1-514.2,238.2-506.9,230.5-506.9z M124.4-506.9H82c-5,0-9.6-3.1-11.1-7.9c-2.5-8,3.4-15.4,11.1-15.4
		h42.4c5,0,9.6,3.1,11.1,7.9C138-514.2,132.1-506.9,124.4-506.9z"/>
</g>
<path class="st1" d="M402.6,440.3H49.4c-20.3,0-36.7-16.4-36.7-36.7V48.3c0-20.3,16.4-36.7,36.7-36.7h353.3
	c20.3,0,36.7,16.4,36.7,36.7v355.3C439.3,423.9,422.9,440.3,402.6,440.3z"/>
</svg>
