<?xml version="1.0" encoding="utf-8"?>
<!-- Generator: Adobe Illustrator 22.1.0, SVG Export Plug-In . SVG Version: 6.00 Build 0)  -->
<svg version="1.1" id="Layer_1" xmlns="http://www.w3.org/2000/svg" xmlns:xlink="http://www.w3.org/1999/xlink" x="0px" y="0px"
	 viewBox="0 0 158 151.2" style="enable-background:new 0 0 158 151.2;" xml:space="preserve">
<style type="text/css">
	.st0{fill:#6900FF;}
	.st1{fill:#FF00A5;}
	.st2{fill:#FFC300;}
	.st3{fill:#FF4100;}
	.st4{fill:#00FFE6;}
	.st5{fill:#00E66E;}
	.st6{fill:#41FF69;}
</style>
<path id="Path_148" class="st0" d="M87,5l17.5,35.5c1.3,2.6,3.8,4.5,6.7,4.9l39.2,5.7c4.9,0.7,8.3,5.3,7.6,10.2
	c-0.3,1.9-1.2,3.7-2.6,5.1L127,93.8c-2.1,2-3.1,5-2.6,7.9l6.7,39c0.8,4.9-2.4,9.5-7.2,10.3c-2,0.3-4,0-5.7-0.9l-35-18.4
	c-2.6-1.4-5.7-1.4-8.3,0l-35,18.4c-4.4,2.3-9.8,0.6-12.1-3.7c-0.9-1.7-1.2-3.7-0.9-5.7l6.7-39c0.5-2.9-0.4-5.9-2.6-7.9L2.7,66.3
	c-3.5-3.5-3.6-9.1-0.2-12.7c1.4-1.4,3.2-2.3,5.1-2.6l39.2-5.7c2.9-0.4,5.4-2.2,6.7-4.9L71,5c2.1-4.4,7.4-6.2,11.8-4.1
	C84.7,1.8,86.1,3.2,87,5z"/>
<rect x="-319" y="-492" class="st1" width="214" height="214"/>
<rect x="-933" y="-492" class="st2" width="214" height="214"/>
<rect x="252" y="-492" class="st3" width="214" height="214"/>
<rect x="-1521" y="-492" class="st4" width="214" height="214"/>
<rect x="850" y="-492" class="st5" width="214" height="214"/>
<rect x="1090" y="-492" class="st6" width="214" height="214"/>
<rect x="1467" y="-492" class="st0" width="214" height="214"/>
</svg>
