<?xml version="1.0" encoding="utf-8"?>
<!-- Generator: Adobe Illustrator 22.1.0, SVG Export Plug-In . SVG Version: 6.00 Build 0)  -->
<svg version="1.1" id="Layer_1" xmlns="http://www.w3.org/2000/svg" xmlns:xlink="http://www.w3.org/1999/xlink" x="0px" y="0px"
	 viewBox="0 0 494 472" style="enable-background:new 0 0 494 472;" xml:space="preserve">
<style type="text/css">
	.st0{clip-path:url(#SVGID_2_);}
	.st1{fill:#F2F2F2;}
	.st2{fill:#4D4D4D;}
</style>
<g>
	<defs>
		<path id="SVGID_1_" d="M272,15.5l54.7,110.7c4.1,8.2,11.9,13.9,21,15.3l122.3,17.8c22.9,3.3,32,31.4,15.5,47.6L397,293
			c-6.6,6.4-9.6,15.6-8,24.7l20.9,121.7c3.9,22.8-20,40.2-40.5,29.4L260,411.3c-8.1-4.3-17.9-4.3-26,0l-109.4,57.4
			c-20.5,10.8-44.4-6.6-40.5-29.4L105,317.7c1.6-9-1.4-18.3-8-24.7L8.5,206.8c-16.6-16.1-7.4-44.2,15.5-47.6l122.3-17.8
			c9.1-1.3,17-7,21-15.3L222,15.5C232.2-5.2,261.8-5.2,272,15.5z"/>
	</defs>
	<clipPath id="SVGID_2_">
		<use xlink:href="#SVGID_1_"  style="overflow:visible;"/>
	</clipPath>
	<g class="st0">
		<rect x="9.2" y="-30.2" class="st1" width="544.5" height="544.5"/>
		<g>
			<g id="XMLID_8_">
				<g>
					
						<rect x="469.8" y="-461.2" transform="matrix(0.7071 -0.7071 0.7071 0.7071 116.4709 357.5683)" class="st2" width="40.1" height="998.8"/>
				</g>
			</g>
			<g id="XMLID_7_">
				<g>
					
						<rect x="413.5" y="-402.8" transform="matrix(0.7071 -0.7071 0.7071 0.7071 58.6764 334.8583)" class="st2" width="40.1" height="998.8"/>
				</g>
			</g>
			<g id="XMLID_6_">
				<g>
					
						<rect x="357.2" y="-344.4" transform="matrix(0.7071 -0.7071 0.7071 0.7071 0.8819 312.1481)" class="st2" width="40.1" height="998.8"/>
				</g>
			</g>
			<g id="XMLID_5_">
				<g>
					
						<rect x="301" y="-286" transform="matrix(0.7071 -0.7071 0.7071 0.7071 -56.842 289.5259)" class="st2" width="40.1" height="998.8"/>
				</g>
			</g>
			<g id="XMLID_4_">
				<g>
					
						<rect x="244.7" y="-227.6" transform="matrix(0.7071 -0.7071 0.7071 0.7071 -114.6364 266.8159)" class="st2" width="40.1" height="998.8"/>
				</g>
			</g>
			<g id="XMLID_3_">
				<g>
					
						<rect x="188.4" y="-169.2" transform="matrix(0.7071 -0.7071 0.7071 0.7071 -172.431 244.1058)" class="st2" width="40.1" height="998.8"/>
				</g>
			</g>
			<g id="XMLID_2_">
				<g>
					
						<rect x="132.1" y="-110.8" transform="matrix(0.7071 -0.7071 0.7071 0.7071 -230.2255 221.3957)" class="st2" width="40.1" height="998.8"/>
				</g>
			</g>
			<g id="XMLID_1_">
				<g>
					
						<rect x="75.9" y="-52.4" transform="matrix(0.7071 -0.7071 0.7071 0.7071 -287.9492 198.7735)" class="st2" width="40.1" height="998.8"/>
				</g>
			</g>
		</g>
	</g>
</g>
</svg>
