<?xml version="1.0" encoding="utf-8"?>
<!-- Generator: Adobe Illustrator 22.1.0, SVG Export Plug-In . SVG Version: 6.00 Build 0)  -->
<svg version="1.1" id="Layer_1" xmlns="http://www.w3.org/2000/svg" xmlns:xlink="http://www.w3.org/1999/xlink" x="0px" y="0px"
	 viewBox="0 0 520 510" style="enable-background:new 0 0 520 510;" xml:space="preserve">
<style type="text/css">
	.st0{fill:#4D4D4D;}
</style>
<g>
	<path class="st0" d="M127.2,488.6c-2.6,0-5.3-0.3-8-0.9c-5.8-1.3-9.4-6.9-8-12.7c1.3-5.8,6.9-9.4,12.7-8c3.6,0.8,7.2,0.3,10.6-1.5
		l18.1-9.5c5.2-2.7,11.6-0.7,14.4,4.5c2.7,5.2,0.7,11.6-4.5,14.4l-18.1,9.5C138.9,487.1,133.1,488.6,127.2,488.6z M383.6,488.6
		c-5.7,0-10.4-4.5-10.7-10.2c-0.3-5.9,4.3-11,10.2-11.1c8-0.4,14.6-6.8,15.1-14.8c0.3-5.9,5.3-10.5,11.1-10.2s10.5,5.3,10.1,11.1
		c-0.9,18.8-16.5,34.2-35.4,35C384,488.6,383.8,488.6,383.6,488.6z M331,464.9c-1.7,0-3.4-0.4-5-1.2l-34.3-18.1
		c-5.2-2.7-7.2-9.2-4.5-14.4s9.2-7.2,14.4-4.5l34.3,18.1c5.2,2.7,7.2,9.2,4.5,14.4C338.6,462.9,334.8,464.9,331,464.9z M208.9,448.9
		c-3.8,0-7.5-2.2-9.5-5.7c-2.7-5.2-0.7-11.6,4.5-14.4l34.5-18.2c5.3-2.5,11.6-0.5,14.3,4.9c2.5,5.3,0.5,11.7-4.9,14.3l-0.6,0.3
		l-33.5,17.7C212.3,448.6,210.6,448.9,208.9,448.9z M104.2,440.1c-0.7,0-1.2-0.1-1.9-0.2c-5.8-1-9.7-6.6-8.7-12.4l6.6-38.3
		c1-5.8,6.6-9.7,12.3-8.7c5.8,1,9.7,6.6,8.7,12.4l-6.6,38.3C113.9,436.4,109.3,440.1,104.2,440.1z M399.6,406.2
		c-5.1,0-9.6-3.6-10.6-8.9l-6.6-38.3c-1-5.8,2.9-11.3,8.7-12.4c5.8-1,11.3,2.9,12.3,8.7l6.6,38.3c1,5.8-2.9,11.3-8.7,12.4
		C400.8,406.2,400.2,406.2,399.6,406.2z M120.6,344.3c-0.7,0-1.2-0.1-1.9-0.2c-5.8-1-9.7-6.6-8.7-12.4l0.3-1.7
		c0.2-0.9,0.2-1.8,0.2-2.6c0-4.2-1.8-8.3-4.8-11.2l-8.3-8.1c-4.2-4.1-4.3-11-0.2-15.2c4.1-4.2,11-4.3,15.2-0.2l8.3,8.1
		c7.1,6.9,11.1,16.6,11.1,26.5c0,2.2-0.2,4.2-0.6,6.3l-0.3,1.7C130.2,340.7,125.7,344.3,120.6,344.3z M401.5,314.5
		c-2.7,0-5.6-1.1-7.6-3.2c-4.1-4.2-4-11,0.2-15.2l27.8-27.1c4.2-4.1,11-4,15.2,0.2c4.1,4.2,4,11-0.2,15.2L409,311.5
		C406.8,313.4,404.1,314.5,401.5,314.5z M63.3,270.7c-2.6,0-5.4-1-7.4-3l-27.8-27.1c-4.2-4.1-4.3-11-0.2-15.2s11-4.3,15.2-0.2
		l27.8,27.1c4.2,4.1,4.3,11,0.2,15.2C68.9,269.5,66,270.7,63.3,270.7z M470.8,246.7c-2.7,0-5.6-1.1-7.6-3.2c-4.1-4.2-4-11,0.2-15.2
		l8.9-8.7c3.9-3.8,4.8-8.1,4.8-11.1c0-1.1-0.1-2.2-0.4-3.2c-1.2-5.8,2.4-11.4,8.2-12.6c5.8-1.2,11.4,2.5,12.6,8.3
		c0.6,2.4,0.7,5.1,0.7,7.6c0,10-3.9,19.4-11.1,26.4l-8.9,8.7C476.2,245.8,473.6,246.7,470.8,246.7z M36.4,195.5
		c-3.9,0-7.7-2.2-9.6-6c-2.5-5.3-0.5-11.7,4.9-14.3c3.5-1.8,7.2-2.8,11.1-3.5l30-4.4c5.9-0.8,11.2,3.2,12.1,9.1
		c0.8,5.9-3.2,11.2-9,12.1l-30.1,4.4c-1.8,0.3-3.3,0.7-4.9,1.5C39.6,195.2,38.1,195.5,36.4,195.5z M439.5,189.3c-0.6,0-1,0-1.6-0.1
		l-38.4-5.6c-5.9-0.8-9.9-6.3-9-12.1c0.8-5.9,6.3-9.9,12.1-9.1L441,168c5.9,0.8,9.9,6.3,9,12.1C449.4,185.5,444.8,189.3,439.5,189.3
		z M132.1,180.3c-5.2,0-9.8-3.8-10.6-9.2c-0.8-5.9,3.2-11.2,9-12.1l27.7-4c2.2-0.3,4.1-1,6.1-2.2c5.1-3.1,11.5-1.6,14.7,3.5
		c3.1,5.1,1.6,11.5-3.5,14.7c-4.3,2.6-9.1,4.4-14.2,5.1l-27.7,4C133.1,180.3,132.5,180.3,132.1,180.3z M343.8,174.7
		c-1.3,0-2.6-0.3-3.9-0.7c-8.4-3.4-15.4-9.8-19.4-18l-8.7-17.6c-2.5-5.3-0.5-11.7,4.9-14.3c5.3-2.6,11.6-0.5,14.3,4.9l8.7,17.6
		c1.8,3.5,4.6,6.2,8.1,7.6c5.5,2.2,8,8.4,5.9,13.9C352,172.1,348,174.7,343.8,174.7z M198.9,122.8c-1.6,0-3.2-0.4-4.7-1.1
		c-5.3-2.5-7.4-9-4.9-14.3l17.1-34.8c2.5-5.3,9-7.4,14.3-4.9s7.4,9,4.9,14.3l-17.1,34.8C206.5,120.7,202.8,122.8,198.9,122.8z
		 M295.6,92c-3.9,0-7.7-2.2-9.5-6L269,51.2c-2.6-5.5-8-8.7-14-8.7c-1.1,0-2.2,0.1-3.2,0.4c-5.8,1.2-11.3-2.5-12.5-8.3
		s2.5-11.4,8.3-12.5c2.4-0.5,5-0.7,7.5-0.7c14.2,0,27,7.9,33.2,20.6l17.1,34.8c2.5,5.3,0.5,11.7-4.9,14.3
		C298.8,91.6,297.1,92,295.6,92z"/>
</g>
</svg>
