<?xml version="1.0" encoding="utf-8"?>
<!-- Generator: Adobe Illustrator 22.1.0, SVG Export Plug-In . SVG Version: 6.00 Build 0)  -->
<svg version="1.1" id="Layer_1" xmlns="http://www.w3.org/2000/svg" xmlns:xlink="http://www.w3.org/1999/xlink" x="0px" y="0px"
	 viewBox="0 0 158 151.2" style="enable-background:new 0 0 158 151.2;" xml:space="preserve">
<style type="text/css">
	
		.st0{fill:none;stroke:#4D4D4D;stroke-width:10.5666;stroke-linecap:round;stroke-linejoin:round;stroke-miterlimit:10;stroke-dasharray:18,27.818,18,27.818;}
</style>
<path id="Path_148" class="st0" d="M85.7,16.8l14.6,29.6c1.1,2.2,3.2,3.7,5.6,4.1l32.6,4.7c4.1,0.5,6.9,4.4,6.3,8.5
	c-0.3,1.5-1,3.1-2.2,4.3L119,90.8c-1.7,1.6-2.6,4.2-2.2,6.6l5.6,32.5c0.6,4.1-2,7.9-6,8.6c-1.6,0.3-3.3,0-4.7-0.7l-29.1-15.3
	c-2.2-1.2-4.7-1.2-6.9,0l-29.4,15.2c-3.6,1.9-8.1,0.5-10-3.1c-0.7-1.4-1-3.1-0.7-4.7l5.6-32.5c0.5-2.4-0.4-4.9-2.2-6.6l-23.5-23
	c-2.9-2.9-3-7.6-0.2-10.6c1.2-1.2,2.6-1.9,4.3-2.2l32.6-4.7c2.4-0.4,4.5-1.8,5.6-4.1l14.6-29.5c1.7-3.6,6.1-5.2,9.9-3.4
	C83.7,14.2,84.9,15.4,85.7,16.8z"/>
</svg>
