<?xml version="1.0" encoding="utf-8"?>
<!-- Generator: Adobe Illustrator 22.1.0, SVG Export Plug-In . SVG Version: 6.00 Build 0)  -->
<svg version="1.1" id="Layer_1" xmlns="http://www.w3.org/2000/svg" xmlns:xlink="http://www.w3.org/1999/xlink" x="0px" y="0px"
	 viewBox="0 0 494 472" style="enable-background:new 0 0 494 472;" xml:space="preserve">
<style type="text/css">
	.st0{fill:#6900FF;}
</style>
<path class="st0" d="M272,15.5l54.7,110.7c4.1,8.2,11.9,13.9,21,15.3l122.3,17.8c22.9,3.3,32,31.4,15.5,47.6L397,293
	c-6.6,6.4-9.6,15.6-8,24.7l20.9,121.7c3.9,22.8-20,40.2-40.5,29.4L260,411.3c-8.1-4.3-17.9-4.3-26,0l-109.4,57.4
	c-20.5,10.8-44.4-6.6-40.5-29.4L105,317.7c1.6-9-1.4-18.3-8-24.7L8.5,206.8c-16.6-16.1-7.4-44.2,15.5-47.6l122.3-17.8
	c9.1-1.3,17-7,21-15.3L222,15.5C232.2-5.2,261.8-5.2,272,15.5z"/>
</svg>
