<?xml version="1.0" encoding="utf-8"?>
<!-- Generator: Adobe Illustrator 22.1.0, SVG Export Plug-In . SVG Version: 6.00 Build 0)  -->
<svg version="1.1" id="Layer_1" xmlns="http://www.w3.org/2000/svg" xmlns:xlink="http://www.w3.org/1999/xlink" x="0px" y="0px"
	 viewBox="0 0 1515 1450" style="enable-background:new 0 0 1515 1450;" xml:space="preserve">
<style type="text/css">
	.st0{fill:#FF4100;}
	.st1{fill:#4D4D4D;}
</style>
<g>
	<path class="st0" d="M834.3,47.8l167.7,340c12.5,25.3,36.6,42.8,64.5,46.9l375.1,54.5c70.2,10.2,98.3,96.6,47.5,146.1L1217.7,900
		c-20.2,19.7-29.4,48-24.6,75.8l64.1,373.7c12,70-61.4,123.4-124.3,90.3l-335.5-176.5c-24.9-13.1-54.8-13.1-79.7,0L382.2,1440
		c-62.8,33-136.3-20.3-124.3-90.3L322,975.9c4.8-27.8-4.4-56.2-24.6-75.8L26,635.4c-50.8-49.6-22.8-135.9,47.5-146.1l375.1-54.5
		c27.9-4.1,52-21.6,64.5-46.9l167.7-340C712.1-15.9,802.9-15.9,834.3,47.8z"/>
</g>
<path class="st1" d="M853.9,354.9c-0.2,17.6-8.9,33.4-28.5,33.2c-17.8-0.2-25.6-18.4-25.4-33.8c0.2-15.4,10.4-32.1,27.4-31.9
	C844.2,322.5,854.2,337.7,853.9,354.9z"/>
<path class="st1" d="M715,353.1c-0.2,17.6-8.9,33.4-28.5,33.2c-17.8-0.2-25.6-18.4-25.4-33.8c0.2-15.4,10.4-32.1,27.4-31.9
	C705.2,320.8,715.2,336,715,353.1z"/>
</svg>
