<?xml version="1.0" encoding="utf-8"?>
<!-- Generator: Adobe Illustrator 22.1.0, SVG Export Plug-In . SVG Version: 6.00 Build 0)  -->
<svg version="1.1" id="Layer_1" xmlns="http://www.w3.org/2000/svg" xmlns:xlink="http://www.w3.org/1999/xlink" x="0px" y="0px"
	 viewBox="0 0 452 417" style="enable-background:new 0 0 452 417;" xml:space="preserve">
<style type="text/css">
	.st0{clip-path:url(#SVGID_2_);}
	.st1{fill:#F2F2F2;}
	.st2{fill:#4D4D4D;}
</style>
<g>
	<defs>
		<path id="SVGID_1_" d="M413,417H39c-0.8,0-1.7,0-2.5-0.1C7.7,415.2-9,383.1,5,357.8L190.9,20.7c15.2-27.6,54.9-27.6,70.2,0
			L447,357.8c14,25.3-2.7,57.4-31.5,59.1C414.7,417,413.8,417,413,417z"/>
	</defs>
	<clipPath id="SVGID_2_">
		<use xlink:href="#SVGID_1_"  style="overflow:visible;"/>
	</clipPath>
	<g class="st0">
		<rect x="-44.1" y="-78" class="st1" width="544.5" height="544.5"/>
		<g>
			<g id="XMLID_8_">
				<g>
					
						<rect x="416.5" y="-509" transform="matrix(0.7071 -0.7071 0.7071 0.7071 134.6841 305.8422)" class="st2" width="40.1" height="998.8"/>
				</g>
				<g>
				</g>
			</g>
			<g id="XMLID_7_">
				<g>
					
						<rect x="360.2" y="-450.6" transform="matrix(0.7071 -0.7071 0.7071 0.7071 76.9058 283.1557)" class="st2" width="40.1" height="998.8"/>
				</g>
				<g>
				</g>
			</g>
			<g id="XMLID_6_">
				<g>
					
						<rect x="303.9" y="-392.2" transform="matrix(0.7071 -0.7071 0.7071 0.7071 19.1274 260.4693)" class="st2" width="40.1" height="998.8"/>
				</g>
				<g>
				</g>
			</g>
			<g id="XMLID_5_">
				<g>
					
						<rect x="247.7" y="-333.8" transform="matrix(0.7071 -0.7071 0.7071 0.7071 -38.6509 237.7828)" class="st2" width="40.1" height="998.8"/>
				</g>
				<g>
				</g>
			</g>
			<g id="XMLID_4_">
				<g>
					
						<rect x="191.4" y="-275.4" transform="matrix(0.7071 -0.7071 0.7071 0.7071 -96.4293 215.0963)" class="st2" width="40.1" height="998.8"/>
				</g>
				<g>
				</g>
			</g>
			<g id="XMLID_3_">
				<g>
					
						<rect x="135.1" y="-217" transform="matrix(0.7071 -0.7071 0.7071 0.7071 -154.2076 192.4099)" class="st2" width="40.1" height="998.8"/>
				</g>
				<g>
				</g>
			</g>
			<g id="XMLID_2_">
				<g>
					
						<rect x="78.8" y="-158.6" transform="matrix(0.7071 -0.7071 0.7071 0.7071 -211.986 169.7234)" class="st2" width="40.1" height="998.8"/>
				</g>
				<g>
				</g>
			</g>
			<g id="XMLID_1_">
				<g>
					
						<rect x="22.6" y="-100.2" transform="matrix(0.7071 -0.7071 0.7071 0.7071 -269.7643 147.0369)" class="st2" width="40.1" height="998.8"/>
				</g>
				<g>
				</g>
			</g>
		</g>
	</g>
</g>
</svg>
