<?xml version="1.0" encoding="utf-8"?>
<!-- Generator: Adobe Illustrator 22.1.0, SVG Export Plug-In . SVG Version: 6.00 Build 0)  -->
<svg version="1.1" id="Layer_1" xmlns="http://www.w3.org/2000/svg" xmlns:xlink="http://www.w3.org/1999/xlink" x="0px" y="0px"
	 viewBox="0 0 440 417" style="enable-background:new 0 0 440 417;" xml:space="preserve">
<style type="text/css">
	.st0{fill:#4D4D4D;}
</style>
<g>
	<g>
		<path class="st0" d="M385.8,408H345c-6.2,0-11.2-5-11.2-11.2s5-11.2,11.2-11.2h40.8h0.1c9.9,0,18.9-5.5,23.6-14.1
			c3-5.5,9.9-7.4,15.2-4.4c5.5,3,7.4,9.8,4.4,15.2c-8.7,15.7-25.3,25.5-43.2,25.6C386,408,385.9,408,385.8,408
			C385.9,408,385.8,408,385.8,408z M283.8,408H243c-6.2,0-11.2-5-11.2-11.2s5-11.2,11.2-11.2h40.8c6.2,0,11.2,5,11.2,11.2
			S290.1,408,283.8,408z M182,408h-40.8c-6.2,0-11.2-5-11.2-11.2s5-11.2,11.2-11.2H182c6.2,0,11.2,5,11.2,11.2S188.1,408,182,408z
			 M80.1,408h-28c-5.6,0-11-1-16.2-2.7c-5.8-2-9-8.4-6.9-14.3c2-5.8,8.4-8.9,14.3-6.9c2.9,1,5.8,1.4,8.9,1.4h27.9
			c6.2,0,11.2,5,11.2,11.2C91.3,403,86.3,408,80.1,408z M20.6,357.3c-1.8,0-3.7-0.5-5.4-1.4c-5.5-3-7.4-9.8-4.4-15.2L30.5,305
			c3-5.5,9.8-7.4,15.2-4.4s7.4,9.8,4.4,15.2l-19.6,35.6C28.4,355.2,24.5,357.3,20.6,357.3z M403.6,332.6c-3.9,0-7.8-2.1-9.9-5.7
			l-19.6-35.6c-3-5.5-1.1-12.3,4.4-15.2s12.3-1.1,15.2,4.4l19.7,35.6c3,5.5,1.1,12.3-4.4,15.2C407.3,332.2,405.5,332.6,403.6,332.6z
			 M69.8,268.2c-1.8,0-3.7-0.5-5.4-1.4c-5.5-3-7.4-9.8-4.4-15.2L79.7,216c3-5.5,9.8-7.4,15.2-4.4c5.5,3,7.4,9.8,4.4,15.2l-19.7,35.6
			C77.6,266.1,73.7,268.2,69.8,268.2z M354.4,243.6c-3.9,0-7.8-2.1-9.9-5.7l-19.7-35.6c-3-5.5-1.1-12.3,4.4-15.2
			c5.5-3,12.3-1.1,15.2,4.4l19.7,35.6c3,5.5,1.1,12.3-4.4,15.2C358.1,243.1,356.2,243.6,354.4,243.6z M119,179
			c-1.8,0-3.7-0.5-5.4-1.4c-5.5-3-7.4-9.8-4.4-15.2l19.7-35.6c3-5.5,9.8-7.4,15.2-4.4c5.5,3,7.4,9.8,4.4,15.2l-19.7,35.6
			C126.9,177,123,179,119,179z M305.2,154.4c-3.9,0-7.8-2.1-9.9-5.7l-19.7-35.6c-3-5.5-1.1-12.3,4.4-15.2c5.5-3,12.3-1.1,15.2,4.4
			l19.7,35.6c3,5.5,1.1,12.3-4.4,15.2C308.9,154.1,307,154.4,305.2,154.4z M168.3,90c-1.8,0-3.7-0.5-5.4-1.4
			c-5.5-3-7.4-9.8-4.4-15.2l19.7-35.6c3-5.5,9.8-7.4,15.2-4.4s7.4,9.8,4.4,15.2l-19.7,35.6C176.1,87.9,172.2,90,168.3,90z M256,65.4
			c-3.9,0-7.8-2.1-9.9-5.7L232,34c-1.1-2-2.5-3.6-4.2-4.9c-5-3.6-6.1-10.6-2.4-15.6c3.6-5,10.6-6,15.7-2.4
			c4.4,3.2,7.9,7.3,10.6,12.2L265.8,49c3,5.5,1.1,12.3-4.4,15.2C259.7,65,257.8,65.4,256,65.4z"/>
	</g>
</g>
</svg>
