<?xml version="1.0" encoding="utf-8"?>
<!-- Generator: Adobe Illustrator 22.1.0, SVG Export Plug-In . SVG Version: 6.00 Build 0)  -->
<svg version="1.1" id="Layer_1" xmlns="http://www.w3.org/2000/svg" xmlns:xlink="http://www.w3.org/1999/xlink" x="0px" y="0px"
	 viewBox="0 0 1390 1300" style="enable-background:new 0 0 1390 1300;" xml:space="preserve">
<style type="text/css">
	.st0{fill:#FF00A5;}
	.st1{fill:#4D4D4D;}
</style>
<g>
	<path class="st0" d="M1262.8,1300H127.4c-55.7,0-103.1-34.8-121.9-83.7c-9.1-23.6-6.7-50.2,5.5-72.3L617.2,45.9
		c33.8-61.2,121.9-61.2,155.6,0L1379,1144c12.2,22.2,14.6,48.7,5.5,72.3C1365.9,1265.2,1318.4,1300,1262.8,1300z"/>
</g>
<path class="st1" d="M791.4,315.4c-0.2,17.6-8.9,33.4-28.5,33.2c-17.8-0.2-25.6-18.4-25.4-33.8c0.2-15.4,10.4-32.1,27.4-31.9
	C781.7,283.1,791.7,298.2,791.4,315.4z"/>
<path class="st1" d="M652.5,313.7c-0.2,17.6-8.9,33.4-28.5,33.2c-17.8-0.2-25.6-18.4-25.4-33.8c0.2-15.4,10.4-32.1,27.4-31.9
	C642.7,281.4,652.7,296.5,652.5,313.7z"/>
</svg>
